<?xml version="1.0" encoding="UTF-8"?>
<svg xmlns="http://www.w3.org/2000/svg" xmlns:xlink="http://www.w3.org/1999/xlink" width="263.189pt" height="270.848pt" viewBox="0 0 263.189 270.848">
<defs>
<g>
<g id="glyph-0-0">
<path d="M 4.609375 -2.25 C 4.75 -2.25 4.890625 -2.484375 4.890625 -2.578125 C 4.890625 -2.65625 4.84375 -2.75 4.75 -2.75 L 0.84375 -2.75 C 0.734375 -2.75 0.59375 -2.5625 0.59375 -2.40625 C 0.59375 -2.328125 0.65625 -2.25 0.75 -2.25 Z M 4.609375 -2.25 "/>
</g>
<g id="glyph-0-1">
<path d="M 2.875 -1.21875 L 2.875 -4.671875 C 2.875 -5.28125 2.875 -5.875 2.90625 -6.015625 C 2.90625 -6.046875 2.875 -6.0625 2.84375 -6.0625 C 2.28125 -5.71875 1.765625 -5.46875 0.890625 -5.0625 C 0.890625 -4.9375 0.953125 -4.859375 1.03125 -4.796875 C 1.484375 -4.984375 1.71875 -5.046875 1.90625 -5.046875 C 2.0625 -5.046875 2.109375 -4.8125 2.109375 -4.46875 L 2.109375 -1.21875 C 2.109375 -0.390625 1.828125 -0.34375 1.140625 -0.3125 C 1.078125 -0.25 1.078125 -0.046875 1.140625 0.015625 C 1.625 0.015625 1.96875 0 2.515625 0 C 2.984375 0 3.234375 0.015625 3.734375 0.015625 C 3.796875 -0.046875 3.796875 -0.25 3.734375 -0.3125 C 3.046875 -0.34375 2.875 -0.390625 2.875 -1.21875 Z M 2.875 -1.21875 "/>
</g>
<g id="glyph-0-2">
<path d="M 5.609375 -4.28125 L 1.828125 -4.28125 C 1.359375 -4.28125 0.8125 -3.4375 0.609375 -2.84375 L 0.78125 -2.8125 C 1.078125 -3.375 1.421875 -3.59375 1.890625 -3.59375 L 2.046875 -3.59375 C 1.421875 -0.890625 0.90625 -0.71875 0.625 -0.65625 C 0.375 -0.609375 0.234375 -0.3125 0.21875 -0.21875 C 0.203125 -0.171875 0.203125 -0.15625 0.203125 -0.109375 C 0.203125 0.0625 0.34375 0.125 0.4375 0.125 C 1.34375 0.125 1.96875 -1.1875 2.53125 -3.59375 L 3.671875 -3.59375 C 3.390625 -2.453125 3.15625 -1.5 3.03125 -0.921875 C 2.984375 -0.703125 2.953125 -0.53125 2.953125 -0.40625 C 2.953125 -0.03125 3.140625 0.125 3.59375 0.125 C 4.03125 0.125 4.5625 -0.390625 4.84375 -0.703125 L 4.71875 -0.859375 C 4.28125 -0.484375 3.890625 -0.40625 3.78125 -0.40625 C 3.640625 -0.40625 3.578125 -0.5 3.578125 -0.671875 C 3.578125 -0.78125 3.59375 -0.90625 3.640625 -1.0625 C 3.953125 -2.4375 4.140625 -3.234375 4.25 -3.59375 L 4.90625 -3.59375 C 5.25 -3.59375 5.453125 -3.8125 5.6875 -4.15625 Z M 5.609375 -4.28125 "/>
</g>
<g id="glyph-0-3">
<path d="M 2 -3.078125 L 2.34375 -2.09375 L 1.421875 -0.734375 C 1.3125 -0.5625 1.203125 -0.53125 1.140625 -0.53125 C 1.0625 -0.53125 0.953125 -0.5625 0.875 -0.59375 C 0.78125 -0.640625 0.671875 -0.65625 0.578125 -0.65625 C 0.359375 -0.65625 0.203125 -0.5 0.203125 -0.28125 C 0.203125 -0.015625 0.546875 0.09375 0.78125 0.09375 C 1.109375 0.09375 1.359375 -0.046875 1.796875 -0.671875 L 2.484375 -1.671875 L 2.875 -0.453125 C 2.984375 -0.0625 3.09375 0.09375 3.4375 0.09375 C 3.78125 0.09375 4.234375 -0.09375 4.53125 -0.609375 C 4.5 -0.703125 4.40625 -0.78125 4.296875 -0.796875 C 4.03125 -0.46875 3.90625 -0.390625 3.796875 -0.390625 C 3.703125 -0.390625 3.640625 -0.515625 3.5625 -0.75 L 3.015625 -2.359375 L 3.78125 -3.484375 C 3.921875 -3.703125 4.171875 -3.75 4.25 -3.75 C 4.328125 -3.75 4.453125 -3.71875 4.546875 -3.65625 C 4.609375 -3.59375 4.78125 -3.546875 4.875 -3.546875 C 5.015625 -3.546875 5.1875 -3.75 5.1875 -3.984375 C 5.1875 -4.234375 4.921875 -4.375 4.6875 -4.375 C 4.203125 -4.375 3.875 -4.203125 3.375 -3.5 L 2.875 -2.78125 L 2.609375 -3.65625 C 2.4375 -4.171875 2.328125 -4.375 2.078125 -4.375 C 1.828125 -4.375 1.109375 -3.953125 0.75 -3.703125 C 0.765625 -3.59375 0.8125 -3.46875 0.890625 -3.390625 C 1 -3.453125 1.328125 -3.609375 1.53125 -3.609375 C 1.671875 -3.609375 1.765625 -3.578125 1.8125 -3.5 C 1.859375 -3.421875 1.921875 -3.25 2 -3.078125 Z M 2 -3.078125 "/>
</g>
<g id="glyph-1-0">
<path d="M 3.921875 -2.984375 L 1.28125 -2.984375 C 0.953125 -2.984375 0.578125 -2.40625 0.421875 -1.984375 L 0.546875 -1.96875 C 0.75 -2.359375 1 -2.515625 1.3125 -2.515625 L 1.4375 -2.515625 C 1 -0.625 0.640625 -0.5 0.4375 -0.453125 C 0.265625 -0.421875 0.171875 -0.21875 0.15625 -0.15625 C 0.140625 -0.125 0.140625 -0.109375 0.140625 -0.078125 C 0.140625 0.046875 0.234375 0.078125 0.3125 0.078125 C 0.9375 0.078125 1.375 -0.828125 1.765625 -2.515625 L 2.578125 -2.515625 C 2.375 -1.71875 2.203125 -1.046875 2.125 -0.640625 C 2.078125 -0.5 2.0625 -0.375 2.0625 -0.28125 C 2.0625 -0.015625 2.1875 0.078125 2.515625 0.078125 C 2.8125 0.078125 3.1875 -0.265625 3.390625 -0.484375 L 3.296875 -0.59375 C 3 -0.328125 2.71875 -0.28125 2.640625 -0.28125 C 2.546875 -0.28125 2.5 -0.34375 2.5 -0.46875 C 2.5 -0.546875 2.515625 -0.640625 2.546875 -0.734375 C 2.765625 -1.703125 2.90625 -2.265625 2.96875 -2.515625 L 3.421875 -2.515625 C 3.671875 -2.515625 3.8125 -2.671875 3.984375 -2.90625 Z M 3.921875 -2.984375 "/>
</g>
<g id="glyph-1-1">
<path d="M 0.421875 -3.265625 C 0.421875 -3.109375 0.5625 -2.984375 0.703125 -2.984375 C 0.828125 -2.984375 1.03125 -3.109375 1.03125 -3.265625 C 1.03125 -3.328125 1.015625 -3.359375 1 -3.421875 C 0.984375 -3.46875 0.953125 -3.53125 0.953125 -3.578125 C 0.953125 -3.75 1.125 -4 1.640625 -4 C 1.890625 -4 2.25 -3.828125 2.25 -3.15625 C 2.25 -2.71875 2.078125 -2.359375 1.671875 -1.9375 L 1.15625 -1.421875 C 0.46875 -0.734375 0.359375 -0.390625 0.359375 0.015625 C 0.359375 0.015625 0.71875 0 0.9375 0 L 2.15625 0 C 2.390625 0 2.703125 0.015625 2.703125 0.015625 C 2.796875 -0.359375 2.859375 -0.875 2.875 -1.09375 C 2.828125 -1.125 2.734375 -1.140625 2.671875 -1.125 C 2.546875 -0.625 2.4375 -0.453125 2.1875 -0.453125 L 0.9375 -0.453125 C 0.9375 -0.78125 1.421875 -1.265625 1.453125 -1.296875 L 2.15625 -1.96875 C 2.5625 -2.359375 2.859375 -2.65625 2.859375 -3.1875 C 2.859375 -3.9375 2.25 -4.25 1.671875 -4.25 C 0.90625 -4.25 0.421875 -3.671875 0.421875 -3.265625 Z M 0.421875 -3.265625 "/>
</g>
<g id="glyph-2-0">
<path d="M 2.28125 -2.28125 C 2.1875 -2.625 1.734375 -4.796875 1.46875 -5.5 C 1.328125 -5.828125 1.15625 -6.1875 0.921875 -6.421875 C 0.703125 -6.640625 0.46875 -6.65625 0.203125 -6.390625 C -0.015625 -6.171875 -0.03125 -5.96875 0.140625 -5.796875 C 0.1875 -5.75 0.265625 -5.703125 0.3125 -5.6875 C 0.59375 -5.625 0.78125 -5.53125 0.890625 -5.421875 C 1.203125 -5.109375 1.453125 -4.296875 1.59375 -3.65625 C 1.59375 -3.65625 1.8125 -2.71875 1.890625 -2.265625 L 1.828125 -2.234375 C 0.953125 -3.015625 0.234375 -3.640625 -0.859375 -4.296875 C -1.328125 -4.578125 -1.5625 -4.625 -1.734375 -4.453125 C -1.90625 -4.28125 -2.125 -3.46875 -2.1875 -3.0625 C -2.109375 -2.984375 -1.984375 -2.921875 -1.875 -2.90625 C -1.828125 -3.046875 -1.703125 -3.390625 -1.5625 -3.53125 C -1.46875 -3.625 -1.375 -3.6875 -1.28125 -3.65625 C -1.203125 -3.640625 -1.046875 -3.578125 -0.875 -3.46875 C 0.0625 -2.96875 1.984375 -1.453125 2.078125 -1.203125 C 2.25 -0.4375 2.265625 0.171875 2.171875 0.265625 C 2.109375 0.328125 1.875 0.375 1.796875 0.390625 C 1.703125 0.390625 1.515625 0.484375 1.453125 0.546875 C 1.3125 0.6875 1.265625 1.015625 1.46875 1.21875 C 1.71875 1.46875 2.078125 1.203125 2.203125 1.078125 C 2.578125 0.703125 2.6875 -0.3125 2.453125 -1.453125 Z M 2.28125 -2.28125 "/>
</g>
<g id="glyph-2-1">
<path d="M 1.09375 -5.4375 C 1.1875 -5.53125 1.109375 -5.796875 1.046875 -5.859375 C 0.984375 -5.921875 0.890625 -5.953125 0.828125 -5.890625 L -1.9375 -3.125 C -2.015625 -3.046875 -1.96875 -2.8125 -1.859375 -2.703125 C -1.8125 -2.65625 -1.71875 -2.625 -1.65625 -2.6875 Z M 2.265625 -4.265625 C 2.359375 -4.359375 2.28125 -4.625 2.21875 -4.6875 C 2.15625 -4.75 2.0625 -4.78125 2 -4.71875 L -0.765625 -1.953125 C -0.84375 -1.875 -0.796875 -1.640625 -0.6875 -1.53125 C -0.640625 -1.484375 -0.546875 -1.453125 -0.484375 -1.515625 Z M 2.265625 -4.265625 "/>
</g>
<g id="glyph-2-2">
<path d="M -0.75 -3.59375 L 0.171875 -3.140625 L 0.484375 -1.515625 C 0.53125 -1.3125 0.46875 -1.21875 0.4375 -1.1875 C 0.375 -1.125 0.28125 -1.0625 0.203125 -1.046875 C 0.09375 -1 0 -0.9375 -0.0625 -0.875 C -0.21875 -0.71875 -0.21875 -0.5 -0.0625 -0.34375 C 0.125 -0.15625 0.453125 -0.328125 0.609375 -0.484375 C 0.84375 -0.71875 0.9375 -1 0.796875 -1.734375 L 0.5625 -2.9375 L 1.703125 -2.359375 C 2.0625 -2.15625 2.25 -2.125 2.5 -2.375 C 2.734375 -2.609375 2.9375 -3.0625 2.765625 -3.640625 C 2.6875 -3.6875 2.5625 -3.65625 2.46875 -3.59375 C 2.515625 -3.171875 2.484375 -3.046875 2.40625 -2.96875 C 2.34375 -2.90625 2.21875 -2.9375 1.984375 -3.046875 L 0.453125 -3.796875 L 0.203125 -5.140625 C 0.140625 -5.390625 0.296875 -5.609375 0.34375 -5.65625 C 0.40625 -5.71875 0.53125 -5.78125 0.640625 -5.796875 C 0.71875 -5.8125 0.859375 -5.890625 0.9375 -5.96875 C 1.03125 -6.0625 1.015625 -6.328125 0.859375 -6.484375 C 0.671875 -6.671875 0.390625 -6.578125 0.21875 -6.40625 C -0.125 -6.0625 -0.234375 -5.703125 -0.078125 -4.859375 L 0.0625 -4 L -0.734375 -4.421875 C -1.234375 -4.671875 -1.453125 -4.734375 -1.625 -4.5625 C -1.796875 -4.390625 -2.015625 -3.578125 -2.09375 -3.15625 C -2 -3.09375 -1.875 -3.03125 -1.765625 -3.015625 C -1.734375 -3.140625 -1.609375 -3.484375 -1.46875 -3.625 C -1.359375 -3.734375 -1.28125 -3.78125 -1.1875 -3.75 C -1.109375 -3.734375 -0.9375 -3.65625 -0.75 -3.59375 Z M -0.75 -3.59375 "/>
</g>
<g id="glyph-3-0">
<path d="M 3.96875 -0.90625 C 3.921875 -1 3.84375 -1.03125 3.765625 -1.046875 C 3.421875 -0.609375 2.984375 -0.390625 2.5625 -0.390625 C 1.828125 -0.390625 1.21875 -1.125 1.21875 -2.296875 C 1.21875 -3.390625 1.703125 -4.046875 2.359375 -4.046875 C 2.953125 -4.046875 3.03125 -3.703125 3.078125 -3.34375 C 3.09375 -3.078125 3.234375 -2.984375 3.453125 -2.984375 C 3.65625 -2.984375 3.9375 -3.125 3.9375 -3.421875 C 3.9375 -3.984375 3.375 -4.375 2.40625 -4.375 C 1.421875 -4.375 0.375 -3.484375 0.375 -2.078125 C 0.375 -0.78125 1.09375 0.09375 2.34375 0.09375 C 2.9375 0.09375 3.46875 -0.09375 3.96875 -0.90625 Z M 3.96875 -0.90625 "/>
</g>
<g id="glyph-3-1">
<path d="M 0.40625 -2.046875 C 0.40625 -1.03125 1.09375 0.09375 2.5 0.09375 C 3.140625 0.09375 3.625 -0.125 3.953125 -0.453125 C 4.40625 -0.890625 4.609375 -1.515625 4.609375 -2.140625 C 4.609375 -3.171875 4.046875 -4.375 2.515625 -4.375 C 1.859375 -4.375 1.3125 -4.109375 0.953125 -3.671875 C 0.59375 -3.25 0.40625 -2.671875 0.40625 -2.046875 Z M 2.375 -4.03125 C 3.234375 -4.03125 3.765625 -3.25 3.765625 -1.8125 C 3.765625 -0.5625 3.109375 -0.25 2.640625 -0.25 C 1.609375 -0.25 1.265625 -1.5 1.265625 -2.265625 C 1.265625 -3.140625 1.46875 -4.03125 2.375 -4.03125 Z M 2.375 -4.03125 "/>
</g>
<g id="glyph-3-2">
<path d="M 0.484375 -1.375 C 0.515625 -0.890625 0.546875 -0.421875 0.546875 0 C 0.640625 -0.015625 0.75 -0.03125 0.796875 -0.03125 C 0.875 -0.03125 0.921875 -0.03125 1 -0.015625 C 1.265625 0.0625 1.53125 0.09375 1.90625 0.09375 C 2.46875 0.09375 3.484375 -0.171875 3.484375 -1.15625 C 3.484375 -1.828125 3 -2.234375 2.328125 -2.484375 C 1.71875 -2.703125 1.328125 -2.859375 1.328125 -3.40625 C 1.328125 -3.8125 1.6875 -4.046875 2.03125 -4.046875 C 2.25 -4.046875 2.828125 -3.96875 2.953125 -3.125 C 3.015625 -3.0625 3.203125 -3.078125 3.265625 -3.125 C 3.296875 -3.484375 3.3125 -3.859375 3.328125 -4.1875 C 3.015625 -4.234375 2.546875 -4.375 2.03125 -4.375 C 1.28125 -4.375 0.625 -3.890625 0.625 -3.265625 C 0.625 -2.53125 0.953125 -2.21875 1.71875 -1.90625 C 2.546875 -1.5625 2.734375 -1.359375 2.734375 -0.921875 C 2.734375 -0.4375 2.25 -0.234375 1.890625 -0.234375 C 1.5 -0.234375 1.28125 -0.359375 1.171875 -0.46875 C 0.953125 -0.703125 0.84375 -1.140625 0.78125 -1.390625 C 0.734375 -1.453125 0.53125 -1.4375 0.484375 -1.375 Z M 0.484375 -1.375 "/>
</g>
<g id="glyph-3-3">
<path d="M 2.921875 -2.328125 L 2.921875 -1 C 2.921875 -0.875 2.859375 -0.8125 2.78125 -0.75 C 2.515625 -0.53125 2.1875 -0.3125 1.90625 -0.3125 C 1.40625 -0.3125 1.1875 -0.703125 1.1875 -1.015625 C 1.1875 -1.46875 1.390625 -1.921875 2.140625 -2.109375 Z M 2.921875 -0.484375 C 2.984375 -0.171875 3.078125 0.09375 3.59375 0.09375 C 3.96875 0.09375 4.328125 -0.0625 4.53125 -0.265625 C 4.515625 -0.390625 4.46875 -0.46875 4.359375 -0.53125 C 4.28125 -0.46875 4.109375 -0.375 4 -0.375 C 3.703125 -0.375 3.703125 -0.765625 3.703125 -1.21875 L 3.703125 -2.6875 C 3.703125 -4.109375 2.921875 -4.375 2.1875 -4.375 C 1.375 -4.375 0.546875 -3.84375 0.546875 -3.265625 C 0.546875 -3.03125 0.671875 -2.90625 0.890625 -2.90625 C 1.1875 -2.90625 1.359375 -3.125 1.359375 -3.25 C 1.359375 -3.3125 1.359375 -3.390625 1.328125 -3.421875 C 1.328125 -3.453125 1.3125 -3.515625 1.3125 -3.625 C 1.3125 -3.9375 1.734375 -4.046875 2.109375 -4.046875 C 2.453125 -4.046875 2.921875 -3.875 2.921875 -2.75 C 2.921875 -2.6875 2.890625 -2.640625 2.859375 -2.625 L 2 -2.421875 C 1.046875 -2.1875 0.359375 -1.65625 0.359375 -0.984375 C 0.359375 -0.15625 0.921875 0.09375 1.609375 0.09375 C 1.953125 0.09375 2.265625 0.015625 2.703125 -0.3125 L 2.90625 -0.484375 Z M 2.921875 -0.484375 "/>
</g>
<g id="glyph-3-4">
<path d="M 1.75 -3.5625 C 1.734375 -3.96875 1.71875 -4.21875 1.671875 -4.328125 C 1.640625 -4.359375 1.640625 -4.40625 1.5625 -4.40625 C 1.28125 -4.296875 1.015625 -4.203125 0.328125 -4.109375 C 0.3125 -4.0625 0.328125 -3.890625 0.34375 -3.84375 C 0.890625 -3.78125 1 -3.734375 1 -3.15625 L 1 -1.21875 C 1 -0.390625 0.875 -0.34375 0.265625 -0.3125 C 0.203125 -0.25 0.203125 -0.046875 0.265625 0.015625 C 0.609375 0.015625 1 0 1.390625 0 C 1.796875 0 2.25 0.015625 2.609375 0.015625 C 2.65625 -0.046875 2.65625 -0.25 2.609375 -0.3125 C 1.90625 -0.359375 1.78125 -0.390625 1.78125 -1.21875 L 1.78125 -2.609375 C 1.78125 -2.859375 1.90625 -3.09375 2.03125 -3.265625 C 2.140625 -3.421875 2.359375 -3.765625 2.484375 -3.765625 C 2.578125 -3.765625 2.65625 -3.734375 2.734375 -3.625 C 2.8125 -3.53125 2.921875 -3.40625 3.09375 -3.40625 C 3.34375 -3.40625 3.5625 -3.65625 3.5625 -3.890625 C 3.5625 -4.09375 3.390625 -4.375 2.96875 -4.375 C 2.5 -4.375 2.09375 -3.9375 1.859375 -3.546875 C 1.796875 -3.4375 1.75 -3.515625 1.75 -3.5625 Z M 1.75 -3.5625 "/>
</g>
<g id="glyph-4-0">
<path d="M 2.1875 -3.375 L 2.5625 -2.296875 L 1.546875 -0.796875 C 1.421875 -0.625 1.3125 -0.59375 1.25 -0.59375 C 1.15625 -0.59375 1.03125 -0.609375 0.953125 -0.65625 C 0.84375 -0.703125 0.734375 -0.71875 0.625 -0.71875 C 0.390625 -0.71875 0.21875 -0.546875 0.21875 -0.3125 C 0.21875 -0.015625 0.59375 0.109375 0.84375 0.109375 C 1.21875 0.109375 1.484375 -0.046875 1.96875 -0.734375 L 2.71875 -1.828125 L 3.140625 -0.5 C 3.265625 -0.0625 3.390625 0.109375 3.765625 0.109375 C 4.140625 0.109375 4.625 -0.09375 4.96875 -0.671875 C 4.921875 -0.765625 4.828125 -0.84375 4.703125 -0.875 C 4.421875 -0.515625 4.28125 -0.421875 4.15625 -0.421875 C 4.0625 -0.421875 3.984375 -0.5625 3.890625 -0.828125 L 3.296875 -2.578125 L 4.140625 -3.8125 C 4.296875 -4.0625 4.5625 -4.09375 4.640625 -4.09375 C 4.734375 -4.09375 4.875 -4.0625 4.96875 -3.984375 C 5.046875 -3.921875 5.21875 -3.875 5.328125 -3.875 C 5.484375 -3.875 5.6875 -4.09375 5.6875 -4.359375 C 5.6875 -4.625 5.390625 -4.78125 5.140625 -4.78125 C 4.59375 -4.78125 4.234375 -4.59375 3.703125 -3.828125 L 3.15625 -3.046875 L 2.84375 -4 C 2.65625 -4.5625 2.546875 -4.78125 2.265625 -4.78125 C 2 -4.78125 1.203125 -4.328125 0.828125 -4.046875 C 0.84375 -3.921875 0.890625 -3.796875 0.96875 -3.703125 C 1.09375 -3.78125 1.46875 -3.953125 1.671875 -3.953125 C 1.828125 -3.953125 1.9375 -3.921875 1.984375 -3.828125 C 2.046875 -3.734375 2.109375 -3.5625 2.1875 -3.375 Z M 2.1875 -3.375 "/>
</g>
<g id="glyph-4-1">
<path d="M 3.515625 0 C 3.734375 -0.34375 5.0625 -2.375 5.375 -3.109375 C 5.546875 -3.484375 5.671875 -3.875 5.671875 -4.265625 C 5.671875 -4.578125 5.515625 -4.78125 5.09375 -4.78125 C 4.78125 -4.78125 4.59375 -4.640625 4.59375 -4.390625 C 4.59375 -4.3125 4.609375 -4.203125 4.640625 -4.15625 C 4.828125 -3.90625 4.875 -3.671875 4.875 -3.5 C 4.875 -3.015625 4.4375 -2.203125 4.0625 -1.609375 C 4.0625 -1.609375 3.5 -0.703125 3.21875 -0.296875 L 3.140625 -0.328125 C 3.078125 -1.609375 3 -2.625 2.671875 -3.984375 C 2.515625 -4.5625 2.375 -4.78125 2.109375 -4.78125 C 1.859375 -4.78125 1.046875 -4.328125 0.671875 -4.046875 C 0.6875 -3.921875 0.71875 -3.796875 0.8125 -3.703125 C 0.9375 -3.78125 1.296875 -3.953125 1.53125 -3.953125 C 1.671875 -3.953125 1.78125 -3.921875 1.828125 -3.828125 C 1.875 -3.734375 1.9375 -3.5625 2 -3.375 C 2.328125 -2.25 2.65625 0.40625 2.53125 0.671875 C 2.078125 1.40625 1.625 1.890625 1.46875 1.890625 C 1.359375 1.890625 1.15625 1.75 1.09375 1.6875 C 1.015625 1.625 0.796875 1.53125 0.703125 1.53125 C 0.484375 1.53125 0.203125 1.75 0.203125 2.09375 C 0.203125 2.453125 0.6875 2.546875 0.875 2.546875 C 1.453125 2.546875 2.328125 1.859375 3.015625 0.765625 Z M 3.515625 0 "/>
</g>
</g>
<clipPath id="clip-0">
<path clip-rule="nonzero" d="M 0 0 L 263.1875 0 L 263.1875 270.847656 L 0 270.847656 Z M 0 0 "/>
</clipPath>
</defs>
<g clip-path="url(#clip-0)">
<path fill-rule="nonzero" fill="rgb(95.292664%, 95.684814%, 95.684814%)" fill-opacity="1" d="M 0 262.878906 L 0 7.964844 C 0 3.566406 3.566406 -0.00390625 7.96875 -0.00390625 L 255.222656 -0.00390625 C 259.625 -0.00390625 263.191406 3.566406 263.191406 7.964844 L 263.191406 262.878906 C 263.191406 267.28125 259.625 270.847656 255.222656 270.847656 L 7.96875 270.847656 C 3.566406 270.847656 0 267.28125 0 262.878906 Z M 0 262.878906 "/>
</g>
<path fill="none" stroke-width="0.49814" stroke-linecap="butt" stroke-linejoin="miter" stroke="rgb(64.115906%, 64.312744%, 64.312744%)" stroke-opacity="1" stroke-miterlimit="10" d="M 20.616312 -0.0014375 L 20.616312 210.283719 M 103.081156 -0.0014375 L 103.081156 210.283719 M 126.616312 -0.0014375 L 126.616312 210.283719 M 191.381937 -0.0014375 L 191.381937 210.283719 " transform="matrix(1, 0, 0, -1, 25.704, 247.772)"/>
<path fill="none" stroke-width="0.49814" stroke-linecap="butt" stroke-linejoin="miter" stroke="rgb(64.115906%, 64.312744%, 64.312744%)" stroke-opacity="1" stroke-miterlimit="10" d="M -0.000875 20.61575 L 210.284281 20.61575 M -0.000875 103.080594 L 210.284281 103.080594 M -0.000875 126.61575 L 210.284281 126.61575 M -0.000875 191.385281 L 210.284281 191.385281 " transform="matrix(1, 0, 0, -1, 25.704, 247.772)"/>
<path fill="none" stroke-width="0.19925" stroke-linecap="butt" stroke-linejoin="miter" stroke="rgb(50%, 50%, 50%)" stroke-opacity="1" stroke-miterlimit="10" d="M 20.616312 59.721219 L 20.616312 63.975125 M 103.081156 59.721219 L 103.081156 63.975125 M 126.616312 59.721219 L 126.616312 63.975125 M 191.381937 59.721219 L 191.381937 63.975125 " transform="matrix(1, 0, 0, -1, 25.704, 247.772)"/>
<path fill="none" stroke-width="0.19925" stroke-linecap="butt" stroke-linejoin="miter" stroke="rgb(50%, 50%, 50%)" stroke-opacity="1" stroke-miterlimit="10" d="M 59.721781 20.61575 L 63.975687 20.61575 M 59.721781 103.080594 L 63.975687 103.080594 M 59.721781 126.61575 L 63.975687 126.61575 M 59.721781 191.385281 L 63.975687 191.385281 " transform="matrix(1, 0, 0, -1, 25.704, 247.772)"/>
<path fill="none" stroke-width="0.79701" stroke-linecap="butt" stroke-linejoin="miter" stroke="rgb(0%, 0%, 0%)" stroke-opacity="1" stroke-miterlimit="10" d="M -0.000875 61.850125 L 207.694437 61.850125 " transform="matrix(1, 0, 0, -1, 25.704, 247.772)"/>
<path fill-rule="nonzero" fill="rgb(0%, 0%, 0%)" fill-opacity="1" d="M 235.988281 185.921875 L 231.84375 183.851562 L 233.398438 185.921875 L 231.84375 187.996094 "/>
<path fill="none" stroke-width="0.79701" stroke-linecap="butt" stroke-linejoin="miter" stroke="rgb(0%, 0%, 0%)" stroke-opacity="1" stroke-miterlimit="10" d="M 61.846781 -0.0014375 L 61.846781 207.693875 " transform="matrix(1, 0, 0, -1, 25.704, 247.772)"/>
<path fill-rule="nonzero" fill="rgb(0%, 0%, 0%)" fill-opacity="1" d="M 87.550781 37.488281 L 85.480469 41.632812 L 87.550781 40.078125 L 89.625 41.632812 "/>
<g fill="rgb(28.234863%, 28.625488%, 28.625488%)" fill-opacity="1">
<use xlink:href="#glyph-0-0" x="41.264" y="197.943"/>
<use xlink:href="#glyph-0-1" x="46.743452" y="197.943"/>
</g>
<g fill="rgb(28.234863%, 28.625488%, 28.625488%)" fill-opacity="1">
<use xlink:href="#glyph-0-1" x="126.467" y="197.943"/>
</g>
<g fill="rgb(28.234863%, 28.625488%, 28.625488%)" fill-opacity="1">
<use xlink:href="#glyph-1-0" x="150.258" y="194.877"/>
</g>
<path fill="none" stroke-width="0.648" stroke-linecap="butt" stroke-linejoin="miter" stroke="rgb(28.234863%, 28.625488%, 28.625488%)" stroke-opacity="1" stroke-miterlimit="10" d="M -0.0001875 -0.000625 L 4.120906 -0.000625 " transform="matrix(1, 0, 0, -1, 150.258, 198.265)"/>
<g fill="rgb(28.234863%, 28.625488%, 28.625488%)" fill-opacity="1">
<use xlink:href="#glyph-1-1" x="150.697" y="206.335"/>
</g>
<g fill="rgb(28.234863%, 28.625488%, 28.625488%)" fill-opacity="1">
<use xlink:href="#glyph-0-2" x="214.141" y="196.16"/>
</g>
<g fill="rgb(28.234863%, 28.625488%, 28.625488%)" fill-opacity="1">
<use xlink:href="#glyph-0-0" x="71.478" y="230.175"/>
<use xlink:href="#glyph-0-1" x="76.957452" y="230.175"/>
</g>
<g fill="rgb(28.234863%, 28.625488%, 28.625488%)" fill-opacity="1">
<use xlink:href="#glyph-0-1" x="76.958" y="147.711"/>
</g>
<g fill="rgb(28.234863%, 28.625488%, 28.625488%)" fill-opacity="1">
<use xlink:href="#glyph-1-0" x="76.273" y="116.918"/>
</g>
<path fill="none" stroke-width="0.648" stroke-linecap="butt" stroke-linejoin="miter" stroke="rgb(28.234863%, 28.625488%, 28.625488%)" stroke-opacity="1" stroke-miterlimit="10" d="M 0.0004375 0.0003125 L 4.121531 0.0003125 " transform="matrix(1, 0, 0, -1, 76.273, 120.305)"/>
<g fill="rgb(28.234863%, 28.625488%, 28.625488%)" fill-opacity="1">
<use xlink:href="#glyph-1-1" x="76.713" y="128.375"/>
</g>
<g fill="rgb(28.234863%, 28.625488%, 28.625488%)" fill-opacity="1">
<use xlink:href="#glyph-0-2" x="75.703" y="58.468"/>
</g>
<path fill="none" stroke-width="0.3985" stroke-linecap="butt" stroke-linejoin="miter" stroke="rgb(64.115906%, 64.312744%, 64.312744%)" stroke-opacity="1" stroke-miterlimit="10" d="M 4.124125 4.123563 L 88.303812 88.30325 L 96.721781 96.725125 L 113.557719 113.561063 L 121.979594 121.979031 L 206.159281 206.158719 " transform="matrix(1, 0, 0, -1, 25.704, 247.772)"/>
<g fill="rgb(49.763489%, 50.036621%, 50.036621%)" fill-opacity="1">
<use xlink:href="#glyph-2-0" x="195.062" y="69.694"/>
</g>
<g fill="rgb(49.763489%, 50.036621%, 50.036621%)" fill-opacity="1">
<use xlink:href="#glyph-2-1" x="200.817424" y="63.938576"/>
</g>
<g fill="rgb(49.763489%, 50.036621%, 50.036621%)" fill-opacity="1">
<use xlink:href="#glyph-2-2" x="206.650339" y="58.105661"/>
</g>
<path fill="none" stroke-width="1.59404" stroke-linecap="butt" stroke-linejoin="miter" stroke="rgb(90.194702%, 0%, 0%)" stroke-opacity="1" stroke-miterlimit="10" d="M 61.846781 103.080594 L 62.495219 103.072781 L 62.823344 103.068875 L 63.147562 103.061063 L 63.471781 103.049344 L 64.120219 103.018094 L 64.444437 102.998563 L 65.092875 102.951688 L 65.417094 102.924344 L 65.745219 102.897 L 66.069437 102.86575 L 66.393656 102.830594 L 67.042094 102.752469 L 67.690531 102.666531 L 68.01475 102.619656 L 68.338969 102.568875 L 68.667094 102.518094 L 68.991312 102.463406 L 69.63975 102.346219 L 69.963969 102.283719 L 70.612406 102.150906 L 71.260844 102.010281 L 71.588969 101.936063 L 72.237406 101.779813 L 72.561625 101.693875 L 72.885844 101.611844 L 73.210062 101.525906 L 73.534281 101.436063 L 74.182719 101.248563 L 74.510844 101.150906 L 74.835062 101.05325 L 75.159281 100.951688 L 75.807719 100.74075 L 76.131937 100.631375 L 76.780375 100.404813 L 77.104594 100.287625 L 77.432719 100.170438 L 77.756937 100.049344 L 78.405375 99.799344 L 79.053812 99.541531 L 79.378031 99.408719 L 80.026469 99.135281 L 80.354594 98.994656 L 80.678812 98.854031 L 81.32725 98.564969 L 81.651469 98.416531 L 82.299906 98.111844 L 82.624125 97.955594 L 83.272562 97.635281 L 83.600687 97.475125 L 83.924906 97.311063 L 84.573344 96.975125 L 85.221781 96.631375 L 85.546 96.455594 L 86.194437 96.096219 L 86.522562 95.916531 L 86.846781 95.732938 L 87.495219 95.357938 L 88.143656 94.975125 L 88.792094 94.5845 L 89.116312 94.385281 L 89.444437 94.186063 L 90.092875 93.779813 L 90.417094 93.572781 L 90.741312 93.361844 L 91.065531 93.154813 L 92.038187 92.510281 L 92.366312 92.291531 L 92.690531 92.072781 L 93.338969 91.627469 L 93.987406 91.174344 L 94.960062 90.482938 L 95.288187 90.248563 L 96.260844 89.533719 L 96.909281 89.049344 L 97.881937 88.311063 L 98.210062 88.061063 L 98.534281 87.807156 L 98.8585 87.557156 L 99.182719 87.299344 L 99.506937 87.045438 L 99.831156 86.787625 L 100.155375 86.525906 L 100.479594 86.268094 L 100.803812 86.006375 L 101.131937 85.74075 L 101.780375 85.2095 L 102.753031 84.400906 L 103.401469 83.854031 L 103.725687 83.576688 L 104.049906 83.30325 L 104.378031 83.022 L 104.70225 82.744656 L 105.674906 81.900906 L 106.323344 81.330594 L 106.647562 81.041531 L 106.971781 80.756375 L 107.299906 80.467313 L 107.624125 80.174344 L 107.948344 79.885281 L 108.596781 79.299344 L 109.893656 78.111844 L 110.221781 77.814969 L 111.194437 76.912625 L 111.518656 76.607938 L 111.842875 76.307156 L 112.167094 76.002469 L 112.491312 75.693875 L 112.815531 75.389188 L 113.143656 75.080594 L 113.467875 74.775906 L 113.792094 74.467313 L 114.116312 74.154813 L 114.440531 73.846219 L 114.76475 73.533719 L 115.088969 73.225125 L 115.413187 72.912625 L 115.737406 72.596219 L 116.065531 72.283719 L 116.38975 71.971219 L 118.335062 70.072781 L 118.659281 69.752469 L 118.987406 69.432156 L 119.311625 69.11575 L 120.6085 67.8345 L 120.932719 67.510281 L 121.256937 67.189969 L 121.581156 66.86575 L 121.909281 66.545438 L 122.2335 66.221219 L 122.557719 65.900906 L 124.82725 63.631375 L 125.155375 63.307156 L 127.749125 60.713406 L 128.07725 60.389188 L 128.401469 60.061063 L 129.049906 59.412625 L 129.374125 59.092313 L 130.671 57.795438 L 130.999125 57.475125 L 131.647562 56.826688 L 132.296 56.186063 L 132.620219 55.861844 L 133.592875 54.900906 L 133.921 54.580594 L 134.245219 54.260281 L 134.569437 53.943875 L 134.893656 53.623563 L 136.51475 52.041531 L 136.842875 51.725125 L 137.167094 51.412625 L 137.491312 51.096219 L 138.13975 50.471219 L 138.463969 50.162625 L 138.788187 49.850125 L 139.112406 49.541531 L 139.436625 49.229031 L 139.76475 48.920438 L 140.088969 48.611844 L 140.413187 48.307156 L 140.737406 47.998563 L 141.385844 47.389188 L 141.710062 47.088406 L 142.034281 46.783719 L 142.3585 46.482938 L 142.686625 46.182156 L 143.010844 45.881375 L 143.335062 45.5845 L 143.659281 45.283719 L 143.9835 44.986844 L 144.307719 44.693875 L 144.631937 44.397 L 145.280375 43.811063 L 145.604594 43.522 L 145.932719 43.229031 L 146.256937 42.939969 L 146.581156 42.654813 L 146.905375 42.36575 L 147.553812 41.795438 L 148.526469 40.951688 L 148.854594 40.670438 L 149.178812 40.393094 L 149.503031 40.119656 L 149.82725 39.842313 L 150.475687 39.295438 L 151.448344 38.486844 L 151.776469 38.221219 L 152.424906 37.689969 L 153.073344 37.166531 L 154.046 36.393094 L 154.370219 36.139188 L 154.698344 35.885281 L 155.346781 35.385281 L 156.319437 34.647 L 157.292094 33.920438 L 157.620219 33.686063 L 157.944437 33.447781 L 158.592875 32.979031 L 158.917094 32.748563 L 159.88975 32.068875 L 160.213969 31.846219 L 160.542094 31.623563 L 161.51475 30.967313 L 161.838969 30.756375 L 162.163187 30.541531 L 162.487406 30.330594 L 163.135844 29.916531 L 163.463969 29.713406 L 163.788187 29.510281 L 164.436625 29.111844 L 165.085062 28.721219 L 165.7335 28.338406 L 166.381937 27.963406 L 166.710062 27.779813 L 167.682719 27.24075 L 168.006937 27.064969 L 168.655375 26.721219 L 169.303812 26.385281 L 169.631937 26.221219 L 170.604594 25.74075 L 170.928812 25.5845 L 171.57725 25.279813 L 171.901469 25.131375 L 172.225687 24.986844 L 172.553812 24.842313 L 172.878031 24.697781 L 173.20225 24.561063 L 173.526469 24.420438 L 174.499125 24.022 L 175.147562 23.772 L 175.475687 23.647 L 175.799906 23.525906 L 176.448344 23.291531 L 177.096781 23.064969 L 177.421 22.955594 L 178.069437 22.744656 L 178.397562 22.643094 L 179.046 22.447781 L 179.694437 22.260281 L 180.018656 22.170438 L 180.667094 21.998563 L 180.991312 21.916531 L 181.319437 21.838406 L 181.643656 21.760281 L 181.967875 21.686063 L 182.940531 21.475125 L 183.588969 21.350125 L 183.913187 21.291531 L 184.241312 21.232938 L 184.565531 21.17825 L 185.213969 21.076688 L 185.862406 20.982938 L 186.835062 20.86575 L 187.159281 20.830594 L 187.487406 20.799344 L 188.135844 20.744656 L 188.784281 20.697781 L 189.1085 20.67825 L 189.756937 20.647 L 190.081156 20.635281 L 190.409281 20.627469 L 190.7335 20.619656 L 191.057719 20.61575 L 191.381937 20.61575 " transform="matrix(1, 0, 0, -1, 25.704, 247.772)"/>
<g fill="rgb(90.194702%, 0%, 0%)" fill-opacity="1">
<use xlink:href="#glyph-3-0" x="194.466" y="223.221"/>
<use xlink:href="#glyph-3-1" x="198.73001" y="223.221"/>
<use xlink:href="#glyph-3-2" x="203.75118" y="223.221"/>
</g>
<g fill="rgb(90.194702%, 0%, 0%)" fill-opacity="1">
<use xlink:href="#glyph-0-3" x="209.297" y="223.221"/>
</g>
<path fill="none" stroke-width="1.59404" stroke-linecap="butt" stroke-linejoin="miter" stroke="rgb(0%, 35.293579%, 58.036804%)" stroke-opacity="1" stroke-miterlimit="10" d="M 20.616312 191.381375 L 20.780375 187.689969 L 20.948344 186.158719 L 21.112406 184.982938 L 21.276469 183.986844 L 21.440531 183.111844 L 21.6085 182.322781 L 21.772562 181.592313 L 21.936625 180.912625 L 22.104594 180.272 L 22.268656 179.670438 L 22.432719 179.092313 L 22.600687 178.541531 L 22.76475 178.014188 L 22.928812 177.502469 L 23.092875 177.010281 L 23.260844 176.533719 L 23.424906 176.072781 L 23.588969 175.623563 L 23.756937 175.186063 L 23.921 174.760281 L 24.085062 174.342313 L 24.253031 173.936063 L 24.417094 173.537625 L 24.581156 173.147 L 24.749125 172.764188 L 24.913187 172.389188 L 25.07725 172.022 L 25.241312 171.658719 L 25.409281 171.30325 L 25.737406 170.607938 L 25.905375 170.268094 L 26.2335 169.604031 L 26.401469 169.279813 L 26.565531 168.955594 L 26.729594 168.639188 L 26.897562 168.326688 L 27.225687 167.7095 L 27.38975 167.408719 L 27.557719 167.107938 L 27.721781 166.811063 L 27.885844 166.518094 L 28.053812 166.229031 L 28.381937 165.658719 L 28.549906 165.377469 L 28.713969 165.096219 L 28.878031 164.822781 L 29.046 164.549344 L 29.210062 164.275906 L 29.374125 164.006375 L 29.538187 163.74075 L 29.706156 163.475125 L 30.034281 162.951688 L 30.20225 162.693875 L 30.366312 162.436063 L 30.530375 162.182156 L 30.698344 161.92825 L 30.862406 161.674344 L 31.026469 161.424344 L 31.190531 161.17825 L 31.3585 160.932156 L 31.522562 160.686063 L 31.686625 160.443875 L 31.854594 160.201688 L 32.182719 159.725125 L 32.350687 159.486844 L 32.678812 159.018094 L 32.846781 158.783719 L 33.010844 158.549344 L 33.174906 158.318875 L 33.338969 158.092313 L 33.506937 157.861844 L 33.835062 157.408719 L 34.003031 157.186063 L 34.331156 156.74075 L 34.499125 156.518094 L 34.82725 156.080594 L 34.995219 155.861844 L 35.159281 155.643094 L 35.487406 155.213406 L 35.655375 154.998563 L 35.819437 154.783719 L 35.9835 154.572781 L 36.151469 154.357938 L 36.315531 154.147 L 36.479594 153.939969 L 36.647562 153.729031 L 36.975687 153.314969 L 37.143656 153.107938 L 37.471781 152.693875 L 37.635844 152.49075 L 37.803812 152.287625 L 38.131937 151.881375 L 38.299906 151.67825 L 38.628031 151.279813 L 38.796 151.076688 L 38.960062 150.881375 L 39.288187 150.482938 L 39.456156 150.287625 L 39.620219 150.088406 L 39.784281 149.893094 L 39.95225 149.697781 L 40.116312 149.502469 L 40.280375 149.311063 L 40.448344 149.11575 L 40.612406 148.924344 L 40.776469 148.729031 L 40.944437 148.537625 L 41.272562 148.154813 L 41.436625 147.967313 L 41.604594 147.775906 L 41.768656 147.5845 L 41.932719 147.397 L 42.100687 147.2095 L 42.428812 146.8345 L 42.596781 146.647 L 42.924906 146.272 L 43.092875 146.088406 L 43.256937 145.900906 L 43.585062 145.533719 L 43.753031 145.350125 L 44.081156 144.982938 L 44.249125 144.799344 L 44.57725 144.432156 L 44.745219 144.252469 L 44.909281 144.068875 L 45.073344 143.889188 L 45.241312 143.7095 L 45.7335 143.170438 L 45.901469 142.99075 L 46.229594 142.631375 L 46.397562 142.451688 L 46.561625 142.275906 L 46.725687 142.096219 L 46.893656 141.920438 L 47.057719 141.74075 L 47.385844 141.389188 L 47.553812 141.213406 L 47.881937 140.861844 L 48.049906 140.686063 L 48.378031 140.3345 L 48.546 140.158719 L 48.710062 139.986844 L 48.874125 139.811063 L 49.042094 139.639188 L 49.206156 139.463406 L 49.370219 139.291531 L 49.534281 139.11575 L 49.70225 138.943875 L 50.030375 138.600125 L 50.198344 138.42825 L 50.362406 138.252469 L 50.526469 138.080594 L 50.694437 137.908719 L 50.8585 137.74075 L 51.022562 137.568875 L 51.190531 137.397 L 51.518656 137.05325 L 51.682719 136.885281 L 51.850687 136.713406 L 52.01475 136.541531 L 52.178812 136.373563 L 52.346781 136.201688 L 52.674906 135.86575 L 52.842875 135.693875 L 53.171 135.357938 L 53.338969 135.186063 L 53.831156 134.682156 L 53.999125 134.514188 L 54.32725 134.17825 L 54.495219 134.010281 L 54.823344 133.674344 L 54.991312 133.506375 L 55.4835 133.002469 L 55.651469 132.8345 L 55.815531 132.666531 L 56.147562 132.3345 L 56.311625 132.166531 L 56.643656 131.8345 L 56.807719 131.666531 L 57.303812 131.170438 L 57.631937 130.8345 L 57.799906 130.670438 L 57.963969 130.502469 L 58.956156 129.510281 L 59.120219 129.342313 L 59.288187 129.17825 L 59.45225 129.014188 L 59.616312 128.846219 L 61.268656 127.193875 L 61.436625 127.029813 L 61.600687 126.861844 L 63.417094 125.045438 L 63.581156 124.877469 L 63.749125 124.713406 L 63.913187 124.549344 L 64.07725 124.381375 L 64.245219 124.217313 L 64.409281 124.05325 L 64.573344 123.885281 L 64.741312 123.721219 L 64.905375 123.55325 L 65.069437 123.389188 L 65.237406 123.225125 L 65.401469 123.057156 L 65.565531 122.893094 L 65.729594 122.725125 L 65.897562 122.561063 L 66.061625 122.393094 L 66.393656 122.061063 L 66.557719 121.893094 L 67.053812 121.397 L 67.217875 121.229031 L 67.549906 120.897 L 67.878031 120.561063 L 68.046 120.393094 L 68.210062 120.225125 L 68.542094 119.893094 L 68.870219 119.557156 L 69.038187 119.389188 L 69.366312 119.05325 L 69.534281 118.885281 L 70.026469 118.381375 L 70.194437 118.2095 L 70.522562 117.873563 L 70.690531 117.705594 L 70.854594 117.533719 L 71.018656 117.36575 L 71.186625 117.197781 L 71.350687 117.025906 L 71.51475 116.857938 L 71.678812 116.686063 L 71.846781 116.514188 L 72.010844 116.346219 L 72.174906 116.174344 L 72.342875 116.002469 L 72.506937 115.8345 L 72.671 115.662625 L 72.838969 115.49075 L 73.167094 115.147 L 73.335062 114.975125 L 73.82725 114.4595 L 73.995219 114.283719 L 74.323344 113.939969 L 74.491312 113.764188 L 74.655375 113.592313 L 74.819437 113.416531 L 74.987406 113.244656 L 75.315531 112.893094 L 75.4835 112.721219 L 75.975687 112.193875 L 76.143656 112.018094 L 76.307719 111.842313 L 76.471781 111.662625 L 76.63975 111.486844 L 76.803812 111.311063 L 76.967875 111.131375 L 77.135844 110.955594 L 77.463969 110.596219 L 77.631937 110.420438 L 78.124125 109.881375 L 78.292094 109.701688 L 78.456156 109.522 L 78.620219 109.338406 L 78.788187 109.158719 L 78.95225 108.979031 L 79.116312 108.795438 L 79.284281 108.611844 L 79.448344 108.432156 L 79.776469 108.064969 L 79.944437 107.881375 L 80.272562 107.514188 L 80.440531 107.326688 L 80.604594 107.143094 L 80.768656 106.955594 L 80.936625 106.772 L 81.26475 106.397 L 81.432719 106.2095 L 81.596781 106.022 L 81.760844 105.830594 L 81.924906 105.643094 L 82.092875 105.455594 L 82.421 105.072781 L 82.588969 104.881375 L 82.917094 104.498563 L 83.085062 104.307156 L 83.249125 104.111844 L 83.413187 103.920438 L 83.581156 103.725125 L 84.073344 103.139188 L 84.241312 102.943875 L 84.405375 102.744656 L 84.569437 102.549344 L 84.737406 102.350125 L 85.065531 101.951688 L 85.2335 101.752469 L 85.397562 101.549344 L 85.561625 101.350125 L 85.729594 101.147 L 86.057719 100.74075 L 86.221781 100.533719 L 86.38975 100.330594 L 86.717875 99.916531 L 86.885844 99.7095 L 87.049906 99.502469 L 87.213969 99.291531 L 87.381937 99.080594 L 87.874125 98.447781 L 88.042094 98.232938 L 88.370219 97.80325 L 88.538187 97.5845 L 88.70225 97.369656 L 88.866312 97.150906 L 89.034281 96.932156 L 89.198344 96.7095 L 89.362406 96.49075 L 89.530375 96.268094 L 89.694437 96.045438 L 90.022562 95.592313 L 90.190531 95.36575 L 90.354594 95.139188 L 90.518656 94.908719 L 90.686625 94.67825 L 90.850687 94.447781 L 91.01475 94.213406 L 91.182719 93.979031 L 91.346781 93.744656 L 91.510844 93.506375 L 91.678812 93.268094 L 92.171 92.541531 L 92.338969 92.299344 L 92.503031 92.05325 L 92.667094 91.80325 L 92.835062 91.55325 L 92.999125 91.30325 L 93.163187 91.049344 L 93.331156 90.795438 L 93.659281 90.279813 L 93.82725 90.018094 L 93.991312 89.756375 L 94.155375 89.49075 L 94.319437 89.221219 L 94.487406 88.955594 L 94.815531 88.408719 L 94.9835 88.131375 L 95.147562 87.854031 L 95.311625 87.572781 L 95.479594 87.287625 L 95.807719 86.7095 L 95.971781 86.416531 L 96.13975 86.119656 L 96.303812 85.822781 L 96.467875 85.518094 L 96.635844 85.213406 L 96.799906 84.904813 L 96.963969 84.588406 L 97.131937 84.272 L 97.296 83.951688 L 97.460062 83.627469 L 97.628031 83.295438 L 97.792094 82.9595 L 97.956156 82.619656 L 98.120219 82.275906 L 98.288187 81.924344 L 98.45225 81.568875 L 98.616312 81.205594 L 98.784281 80.838406 L 98.948344 80.463406 L 99.112406 80.080594 L 99.280375 79.689969 L 99.444437 79.291531 L 99.6085 78.885281 L 99.776469 78.471219 L 99.940531 78.041531 L 100.104594 77.604031 L 100.268656 77.154813 L 100.436625 76.693875 L 100.600687 76.217313 L 100.76475 75.725125 L 100.932719 75.217313 L 101.096781 74.686063 L 101.260844 74.135281 L 101.428812 73.561063 L 101.592875 72.955594 L 101.756937 72.318875 L 101.924906 71.639188 L 102.088969 70.908719 L 102.253031 70.11575 L 102.417094 69.24075 L 102.585062 68.248563 L 102.749125 67.072781 L 102.913187 65.541531 L 103.081156 61.846219 " transform="matrix(1, 0, 0, -1, 25.704, 247.772)"/>
<g fill="rgb(0%, 35.293579%, 58.036804%)" fill-opacity="1">
<use xlink:href="#glyph-3-3" x="26.313" y="66.541"/>
<use xlink:href="#glyph-3-4" x="30.865926" y="66.541"/>
</g>
<g fill="rgb(0%, 35.293579%, 58.036804%)" fill-opacity="1">
<use xlink:href="#glyph-3-0" x="34.492327" y="66.541"/>
<use xlink:href="#glyph-3-0" x="38.756337" y="66.541"/>
<use xlink:href="#glyph-3-1" x="43.020347" y="66.541"/>
<use xlink:href="#glyph-3-2" x="48.041518" y="66.541"/>
</g>
<g fill="rgb(0%, 35.293579%, 58.036804%)" fill-opacity="1">
<use xlink:href="#glyph-0-3" x="53.588" y="66.541"/>
</g>
<path fill="none" stroke-width="0.3985" stroke-linecap="butt" stroke-linejoin="miter" stroke="rgb(56.939697%, 57.174683%, 57.174683%)" stroke-opacity="1" stroke-dasharray="2.98883 1.99255" stroke-miterlimit="10" d="M 20.616312 61.846219 L 20.616312 191.381375 " transform="matrix(1, 0, 0, -1, 25.704, 247.772)"/>
<path fill="none" stroke-width="0.3985" stroke-linecap="butt" stroke-linejoin="miter" stroke="rgb(56.939697%, 57.174683%, 57.174683%)" stroke-opacity="1" stroke-dasharray="2.98883 1.99255" stroke-miterlimit="10" d="M -0.000875 191.381375 L 20.616312 191.381375 " transform="matrix(1, 0, 0, -1, 25.704, 247.772)"/>
<path fill="none" stroke-width="0.3985" stroke-linecap="butt" stroke-linejoin="miter" stroke="rgb(56.939697%, 57.174683%, 57.174683%)" stroke-opacity="1" stroke-dasharray="2.98883 1.99255" stroke-miterlimit="10" d="M 191.381937 61.846219 L 191.381937 20.61575 " transform="matrix(1, 0, 0, -1, 25.704, 247.772)"/>
<path fill="none" stroke-width="0.3985" stroke-linecap="butt" stroke-linejoin="miter" stroke="rgb(56.939697%, 57.174683%, 57.174683%)" stroke-opacity="1" stroke-dasharray="2.98883 1.99255" stroke-miterlimit="10" d="M 61.846781 20.61575 L 191.381937 20.61575 " transform="matrix(1, 0, 0, -1, 25.704, 247.772)"/>
<path fill="none" stroke-width="0.3985" stroke-linecap="butt" stroke-linejoin="miter" stroke="rgb(56.939697%, 57.174683%, 57.174683%)" stroke-opacity="1" stroke-dasharray="2.98883 1.99255" stroke-miterlimit="10" d="M -0.000875 126.61575 L 61.846781 126.61575 " transform="matrix(1, 0, 0, -1, 25.704, 247.772)"/>
<path fill-rule="nonzero" fill="rgb(90.194702%, 0%, 0%)" fill-opacity="1" stroke-width="0.3985" stroke-linecap="butt" stroke-linejoin="miter" stroke="rgb(90.194702%, 0%, 0%)" stroke-opacity="1" stroke-miterlimit="10" d="M 64.338969 103.080594 C 64.338969 104.455594 63.221781 105.568875 61.846781 105.568875 C 60.471781 105.568875 59.3585 104.455594 59.3585 103.080594 C 59.3585 101.705594 60.471781 100.588406 61.846781 100.588406 C 63.221781 100.588406 64.338969 101.705594 64.338969 103.080594 Z M 64.338969 103.080594 " transform="matrix(1, 0, 0, -1, 25.704, 247.772)"/>
<path fill-rule="nonzero" fill="rgb(90.194702%, 0%, 0%)" fill-opacity="1" stroke-width="0.3985" stroke-linecap="butt" stroke-linejoin="miter" stroke="rgb(90.194702%, 0%, 0%)" stroke-opacity="1" stroke-miterlimit="10" d="M 193.874125 20.61575 C 193.874125 21.99075 192.756937 23.107938 191.381937 23.107938 C 190.006937 23.107938 188.88975 21.99075 188.88975 20.61575 C 188.88975 19.24075 190.006937 18.123563 191.381937 18.123563 C 192.756937 18.123563 193.874125 19.24075 193.874125 20.61575 Z M 193.874125 20.61575 " transform="matrix(1, 0, 0, -1, 25.704, 247.772)"/>
<path fill-rule="nonzero" fill="rgb(0%, 35.293579%, 58.036804%)" fill-opacity="1" stroke-width="0.3985" stroke-linecap="butt" stroke-linejoin="miter" stroke="rgb(0%, 35.293579%, 58.036804%)" stroke-opacity="1" stroke-miterlimit="10" d="M 23.1085 191.381375 C 23.1085 192.756375 21.991312 193.873563 20.616312 193.873563 C 19.241312 193.873563 18.124125 192.756375 18.124125 191.381375 C 18.124125 190.006375 19.241312 188.889188 20.616312 188.889188 C 21.991312 188.889188 23.1085 190.006375 23.1085 191.381375 Z M 23.1085 191.381375 " transform="matrix(1, 0, 0, -1, 25.704, 247.772)"/>
<path fill-rule="nonzero" fill="rgb(0%, 35.293579%, 58.036804%)" fill-opacity="1" stroke-width="0.3985" stroke-linecap="butt" stroke-linejoin="miter" stroke="rgb(0%, 35.293579%, 58.036804%)" stroke-opacity="1" stroke-miterlimit="10" d="M 105.569437 61.846219 C 105.569437 63.225125 104.456156 64.338406 103.081156 64.338406 C 101.70225 64.338406 100.588969 63.225125 100.588969 61.846219 C 100.588969 60.471219 101.70225 59.357938 103.081156 59.357938 C 104.456156 59.357938 105.569437 60.471219 105.569437 61.846219 Z M 105.569437 61.846219 " transform="matrix(1, 0, 0, -1, 25.704, 247.772)"/>
<path fill-rule="nonzero" fill="rgb(0%, 35.293579%, 58.036804%)" fill-opacity="1" stroke-width="0.3985" stroke-linecap="butt" stroke-linejoin="miter" stroke="rgb(0%, 35.293579%, 58.036804%)" stroke-opacity="1" stroke-miterlimit="10" d="M 64.338969 126.61575 C 64.338969 127.99075 63.221781 129.104031 61.846781 129.104031 C 60.471781 129.104031 59.3585 127.99075 59.3585 126.61575 C 59.3585 125.24075 60.471781 124.123563 61.846781 124.123563 C 63.221781 124.123563 64.338969 125.24075 64.338969 126.61575 Z M 64.338969 126.61575 " transform="matrix(1, 0, 0, -1, 25.704, 247.772)"/>
<g fill="rgb(0%, 0%, 0%)" fill-opacity="1">
<use xlink:href="#glyph-4-0" x="230.974" y="199.53"/>
</g>
<g fill="rgb(0%, 0%, 0%)" fill-opacity="1">
<use xlink:href="#glyph-4-1" x="77.825" y="31.102"/>
</g>
</svg>
