<?xml version="1.0" encoding="UTF-8"?>
<svg xmlns="http://www.w3.org/2000/svg" xmlns:xlink="http://www.w3.org/1999/xlink" width="433.892pt" height="199.802pt" viewBox="0 0 433.892 199.802">
<defs>
<g>
<g id="glyph-0-0">
<path d="M 4.609375 -2.25 C 4.75 -2.25 4.890625 -2.484375 4.890625 -2.578125 C 4.890625 -2.65625 4.84375 -2.75 4.75 -2.75 L 0.84375 -2.75 C 0.734375 -2.75 0.59375 -2.5625 0.59375 -2.40625 C 0.59375 -2.328125 0.65625 -2.25 0.75 -2.25 Z M 4.609375 -2.25 "/>
</g>
<g id="glyph-0-1">
<path d="M 2.140625 -5.734375 C 2.578125 -5.734375 2.96875 -5.46875 2.96875 -4.828125 C 2.96875 -4.328125 2.390625 -3.5625 1.40625 -3.421875 L 1.453125 -3.109375 C 1.625 -3.125 1.796875 -3.125 1.9375 -3.125 C 2.5 -3.125 3.234375 -2.96875 3.234375 -1.84375 C 3.234375 -0.515625 2.359375 -0.25 2 -0.25 C 1.5 -0.25 1.40625 -0.484375 1.28125 -0.65625 C 1.1875 -0.796875 1.0625 -0.921875 0.859375 -0.921875 C 0.640625 -0.921875 0.4375 -0.734375 0.4375 -0.5625 C 0.4375 -0.171875 1.28125 0.09375 1.875 0.09375 C 3.0625 0.09375 4.109375 -0.671875 4.109375 -1.984375 C 4.109375 -3.078125 3.296875 -3.453125 2.71875 -3.5625 L 2.703125 -3.578125 C 3.515625 -3.953125 3.75 -4.375 3.75 -4.890625 C 3.75 -5.1875 3.671875 -5.4375 3.4375 -5.6875 C 3.21875 -5.90625 2.875 -6.078125 2.359375 -6.078125 C 0.890625 -6.078125 0.46875 -5.125 0.46875 -4.796875 C 0.46875 -4.65625 0.5625 -4.453125 0.8125 -4.453125 C 1.15625 -4.453125 1.203125 -4.78125 1.203125 -4.96875 C 1.203125 -5.609375 1.890625 -5.734375 2.140625 -5.734375 Z M 2.140625 -5.734375 "/>
</g>
<g id="glyph-0-2">
<path d="M 0.609375 -4.671875 C 0.609375 -4.453125 0.796875 -4.28125 1 -4.28125 C 1.171875 -4.28125 1.46875 -4.453125 1.46875 -4.671875 C 1.46875 -4.75 1.453125 -4.8125 1.4375 -4.890625 C 1.421875 -4.953125 1.359375 -5.046875 1.359375 -5.125 C 1.359375 -5.375 1.609375 -5.734375 2.34375 -5.734375 C 2.703125 -5.734375 3.203125 -5.484375 3.203125 -4.53125 C 3.203125 -3.890625 2.984375 -3.375 2.390625 -2.765625 L 1.65625 -2.046875 C 0.671875 -1.046875 0.515625 -0.5625 0.515625 0.015625 C 0.515625 0.015625 1.03125 0 1.34375 0 L 3.09375 0 C 3.40625 0 3.875 0.015625 3.875 0.015625 C 4 -0.515625 4.09375 -1.25 4.109375 -1.5625 C 4.046875 -1.609375 3.921875 -1.625 3.8125 -1.609375 C 3.65625 -0.890625 3.484375 -0.640625 3.125 -0.640625 L 1.34375 -0.640625 C 1.34375 -1.125 2.03125 -1.796875 2.078125 -1.859375 L 3.09375 -2.828125 C 3.65625 -3.375 4.09375 -3.8125 4.09375 -4.5625 C 4.09375 -5.640625 3.203125 -6.078125 2.40625 -6.078125 C 1.296875 -6.078125 0.609375 -5.265625 0.609375 -4.671875 Z M 0.609375 -4.671875 "/>
</g>
<g id="glyph-0-3">
<path d="M 2.875 -1.21875 L 2.875 -4.671875 C 2.875 -5.28125 2.875 -5.875 2.90625 -6.015625 C 2.90625 -6.046875 2.875 -6.0625 2.84375 -6.0625 C 2.28125 -5.71875 1.765625 -5.46875 0.890625 -5.0625 C 0.890625 -4.9375 0.953125 -4.859375 1.03125 -4.796875 C 1.484375 -4.984375 1.71875 -5.046875 1.90625 -5.046875 C 2.0625 -5.046875 2.109375 -4.8125 2.109375 -4.46875 L 2.109375 -1.21875 C 2.109375 -0.390625 1.828125 -0.34375 1.140625 -0.3125 C 1.078125 -0.25 1.078125 -0.046875 1.140625 0.015625 C 1.625 0.015625 1.96875 0 2.515625 0 C 2.984375 0 3.234375 0.015625 3.734375 0.015625 C 3.796875 -0.046875 3.796875 -0.25 3.734375 -0.3125 C 3.046875 -0.34375 2.875 -0.390625 2.875 -1.21875 Z M 2.875 -1.21875 "/>
</g>
<g id="glyph-0-4">
<path d="M 0.203125 0 L 0.234375 0.125 L 0.96875 -0.125 L 1.53125 -2.515625 C 2.296875 -3.5 2.90625 -3.921875 3.25 -3.921875 C 3.453125 -3.921875 3.640625 -3.78125 3.640625 -3.46875 C 3.640625 -3.296875 3.59375 -3.046875 3.515625 -2.734375 L 3.09375 -1.140625 C 3 -0.765625 2.953125 -0.546875 2.953125 -0.328125 C 2.953125 -0.03125 3.171875 0.125 3.390625 0.125 C 3.765625 0.125 4.171875 -0.125 4.75 -0.828125 L 4.546875 -1 C 4.203125 -0.59375 4 -0.40625 3.84375 -0.40625 C 3.78125 -0.40625 3.75 -0.484375 3.75 -0.59375 C 3.75 -0.6875 3.765625 -0.859375 3.859375 -1.21875 L 4.28125 -2.828125 C 4.359375 -3.109375 4.421875 -3.421875 4.421875 -3.625 C 4.421875 -4.234375 4.109375 -4.40625 3.734375 -4.40625 C 3.21875 -4.40625 2.578125 -4.171875 1.671875 -3.09375 L 2.546875 -6.953125 L 2.328125 -6.953125 C 2.109375 -6.875 1.96875 -6.828125 1.765625 -6.78125 C 1.59375 -6.765625 1.21875 -6.703125 1.0625 -6.703125 L 1.015625 -6.453125 C 1.015625 -6.421875 1.03125 -6.40625 1.0625 -6.40625 L 1.390625 -6.4375 C 1.53125 -6.4375 1.59375 -6.34375 1.59375 -6.15625 C 1.59375 -6.046875 1.578125 -5.921875 1.53125 -5.765625 Z M 0.203125 0 "/>
</g>
<g id="glyph-0-5">
<path d="M 0.421875 -2.734375 C 0.421875 -0.53125 1.46875 1.03125 3.078125 1.859375 L 3.234375 1.578125 C 1.78125 0.625 1.25 -0.734375 1.25 -2.734375 C 1.25 -4.71875 1.78125 -6.046875 3.234375 -7.015625 L 3.078125 -7.28125 C 1.46875 -6.453125 0.421875 -4.90625 0.421875 -2.734375 Z M 0.421875 -2.734375 "/>
</g>
<g id="glyph-0-6">
<path d="M 2 -3.078125 L 2.34375 -2.09375 L 1.421875 -0.734375 C 1.3125 -0.5625 1.203125 -0.53125 1.140625 -0.53125 C 1.0625 -0.53125 0.953125 -0.5625 0.875 -0.59375 C 0.78125 -0.640625 0.671875 -0.65625 0.578125 -0.65625 C 0.359375 -0.65625 0.203125 -0.5 0.203125 -0.28125 C 0.203125 -0.015625 0.546875 0.09375 0.78125 0.09375 C 1.109375 0.09375 1.359375 -0.046875 1.796875 -0.671875 L 2.484375 -1.671875 L 2.875 -0.453125 C 2.984375 -0.0625 3.09375 0.09375 3.4375 0.09375 C 3.78125 0.09375 4.234375 -0.09375 4.53125 -0.609375 C 4.5 -0.703125 4.40625 -0.78125 4.296875 -0.796875 C 4.03125 -0.46875 3.90625 -0.390625 3.796875 -0.390625 C 3.703125 -0.390625 3.640625 -0.515625 3.5625 -0.75 L 3.015625 -2.359375 L 3.78125 -3.484375 C 3.921875 -3.703125 4.171875 -3.75 4.25 -3.75 C 4.328125 -3.75 4.453125 -3.71875 4.546875 -3.65625 C 4.609375 -3.59375 4.78125 -3.546875 4.875 -3.546875 C 5.015625 -3.546875 5.1875 -3.75 5.1875 -3.984375 C 5.1875 -4.234375 4.921875 -4.375 4.6875 -4.375 C 4.203125 -4.375 3.875 -4.203125 3.375 -3.5 L 2.875 -2.78125 L 2.609375 -3.65625 C 2.4375 -4.171875 2.328125 -4.375 2.078125 -4.375 C 1.828125 -4.375 1.109375 -3.953125 0.75 -3.703125 C 0.765625 -3.59375 0.8125 -3.46875 0.890625 -3.390625 C 1 -3.453125 1.328125 -3.609375 1.53125 -3.609375 C 1.671875 -3.609375 1.765625 -3.578125 1.8125 -3.5 C 1.859375 -3.421875 1.921875 -3.25 2 -3.078125 Z M 2 -3.078125 "/>
</g>
<g id="glyph-0-7">
<path d="M 3.125 -2.734375 C 3.125 -4.90625 2.078125 -6.453125 0.46875 -7.28125 L 0.3125 -7.015625 C 1.765625 -6.046875 2.296875 -4.71875 2.296875 -2.734375 C 2.296875 -0.734375 1.765625 0.625 0.3125 1.578125 L 0.46875 1.859375 C 2.078125 1.03125 3.125 -0.53125 3.125 -2.734375 Z M 3.125 -2.734375 "/>
</g>
<g id="glyph-0-8">
<path d="M 4.625 -3.078125 C 4.75 -3.078125 4.890625 -3.3125 4.890625 -3.40625 C 4.890625 -3.484375 4.84375 -3.578125 4.75 -3.578125 L 0.84375 -3.578125 C 0.71875 -3.578125 0.59375 -3.390625 0.59375 -3.234375 C 0.59375 -3.15625 0.640625 -3.078125 0.734375 -3.078125 Z M 4.625 -1.421875 C 4.75 -1.421875 4.890625 -1.65625 4.890625 -1.75 C 4.890625 -1.828125 4.84375 -1.921875 4.75 -1.921875 L 0.84375 -1.921875 C 0.71875 -1.921875 0.59375 -1.734375 0.59375 -1.578125 C 0.59375 -1.5 0.640625 -1.421875 0.734375 -1.421875 Z M 4.625 -1.421875 "/>
</g>
<g id="glyph-0-9">
<path d="M 1.34375 -3.0625 C 1.671875 -3.265625 2 -3.296875 2.171875 -3.296875 C 3.15625 -3.296875 3.375 -2.328125 3.375 -1.828125 C 3.375 -0.734375 2.953125 -0.234375 2.46875 -0.234375 C 1.828125 -0.234375 1.265625 -0.578125 1.265625 -2.28125 C 1.265625 -2.5 1.28125 -2.765625 1.34375 -3.0625 Z M 1.4375 -3.421875 C 1.703125 -4.328125 2.34375 -5.328125 3.671875 -5.828125 C 3.671875 -5.953125 3.625 -6.046875 3.546875 -6.09375 C 2.546875 -5.796875 1.921875 -5.375 1.359375 -4.71875 C 0.75 -4 0.4375 -3.09375 0.4375 -2.3125 C 0.4375 -0.296875 1.578125 0.109375 2.359375 0.109375 C 3.65625 0.109375 4.203125 -1.15625 4.203125 -2.015625 C 4.203125 -2.875 3.734375 -3.640625 2.375 -3.640625 C 2.125 -3.640625 1.734375 -3.5625 1.4375 -3.421875 Z M 1.4375 -3.421875 "/>
</g>
<g id="glyph-0-10">
<path d="M 2.703125 -5.046875 L 2.703125 -2.1875 L 0.796875 -2.1875 C 1.3125 -3 2.015625 -4.109375 2.703125 -5.046875 Z M 4.28125 -2.1875 L 3.453125 -2.1875 L 3.453125 -5.09375 C 3.453125 -5.59375 3.453125 -5.984375 3.484375 -6.0625 L 3.453125 -6.078125 L 3.140625 -6.078125 C 3.078125 -6.078125 3.015625 -6.015625 2.984375 -5.96875 C 2.359375 -5.1875 1.1875 -3.5625 0.28125 -2.140625 C 0.3125 -1.984375 0.375 -1.71875 0.671875 -1.71875 L 2.703125 -1.71875 L 2.703125 -0.796875 C 2.703125 -0.34375 2.328125 -0.34375 1.890625 -0.3125 C 1.828125 -0.25 1.828125 -0.046875 1.890625 0.015625 C 2.21875 0.015625 2.609375 0 3.078125 0 C 3.453125 0 3.84375 0.015625 4.15625 0.015625 C 4.21875 -0.046875 4.21875 -0.25 4.15625 -0.3125 C 3.671875 -0.34375 3.453125 -0.328125 3.453125 -0.796875 L 3.453125 -1.71875 L 4.140625 -1.71875 C 4.28125 -1.71875 4.4375 -1.90625 4.4375 -2.03125 C 4.4375 -2.125 4.390625 -2.1875 4.28125 -2.1875 Z M 4.28125 -2.1875 "/>
</g>
<g id="glyph-0-11">
<path d="M 0.703125 -2.515625 C 0.703125 -2.21875 0.953125 -1.984375 1.25 -1.984375 C 1.546875 -1.984375 1.78125 -2.21875 1.78125 -2.515625 C 1.78125 -2.828125 1.546875 -3.0625 1.25 -3.0625 C 0.953125 -3.0625 0.703125 -2.828125 0.703125 -2.515625 Z M 0.703125 -2.515625 "/>
</g>
<g id="glyph-1-0">
<path d="M 2.1875 -3.375 L 2.5625 -2.296875 L 1.546875 -0.796875 C 1.421875 -0.625 1.3125 -0.59375 1.25 -0.59375 C 1.15625 -0.59375 1.03125 -0.609375 0.953125 -0.65625 C 0.84375 -0.703125 0.734375 -0.71875 0.625 -0.71875 C 0.390625 -0.71875 0.21875 -0.546875 0.21875 -0.3125 C 0.21875 -0.015625 0.59375 0.109375 0.84375 0.109375 C 1.21875 0.109375 1.484375 -0.046875 1.96875 -0.734375 L 2.71875 -1.828125 L 3.140625 -0.5 C 3.265625 -0.0625 3.390625 0.109375 3.765625 0.109375 C 4.140625 0.109375 4.625 -0.09375 4.96875 -0.671875 C 4.921875 -0.765625 4.828125 -0.84375 4.703125 -0.875 C 4.421875 -0.515625 4.28125 -0.421875 4.15625 -0.421875 C 4.0625 -0.421875 3.984375 -0.5625 3.890625 -0.828125 L 3.296875 -2.578125 L 4.140625 -3.8125 C 4.296875 -4.0625 4.5625 -4.09375 4.640625 -4.09375 C 4.734375 -4.09375 4.875 -4.0625 4.96875 -3.984375 C 5.046875 -3.921875 5.21875 -3.875 5.328125 -3.875 C 5.484375 -3.875 5.6875 -4.09375 5.6875 -4.359375 C 5.6875 -4.625 5.390625 -4.78125 5.140625 -4.78125 C 4.59375 -4.78125 4.234375 -4.59375 3.703125 -3.828125 L 3.15625 -3.046875 L 2.84375 -4 C 2.65625 -4.5625 2.546875 -4.78125 2.265625 -4.78125 C 2 -4.78125 1.203125 -4.328125 0.828125 -4.046875 C 0.84375 -3.921875 0.890625 -3.796875 0.96875 -3.703125 C 1.09375 -3.78125 1.46875 -3.953125 1.671875 -3.953125 C 1.828125 -3.953125 1.9375 -3.921875 1.984375 -3.828125 C 2.046875 -3.734375 2.109375 -3.5625 2.1875 -3.375 Z M 2.1875 -3.375 "/>
</g>
<g id="glyph-1-1">
<path d="M 3.515625 0 C 3.734375 -0.34375 5.0625 -2.375 5.375 -3.109375 C 5.546875 -3.484375 5.671875 -3.875 5.671875 -4.265625 C 5.671875 -4.578125 5.515625 -4.78125 5.09375 -4.78125 C 4.78125 -4.78125 4.59375 -4.640625 4.59375 -4.390625 C 4.59375 -4.3125 4.609375 -4.203125 4.640625 -4.15625 C 4.828125 -3.90625 4.875 -3.671875 4.875 -3.5 C 4.875 -3.015625 4.4375 -2.203125 4.0625 -1.609375 C 4.0625 -1.609375 3.5 -0.703125 3.21875 -0.296875 L 3.140625 -0.328125 C 3.078125 -1.609375 3 -2.625 2.671875 -3.984375 C 2.515625 -4.5625 2.375 -4.78125 2.109375 -4.78125 C 1.859375 -4.78125 1.046875 -4.328125 0.671875 -4.046875 C 0.6875 -3.921875 0.71875 -3.796875 0.8125 -3.703125 C 0.9375 -3.78125 1.296875 -3.953125 1.53125 -3.953125 C 1.671875 -3.953125 1.78125 -3.921875 1.828125 -3.828125 C 1.875 -3.734375 1.9375 -3.5625 2 -3.375 C 2.328125 -2.25 2.65625 0.40625 2.53125 0.671875 C 2.078125 1.40625 1.625 1.890625 1.46875 1.890625 C 1.359375 1.890625 1.15625 1.75 1.09375 1.6875 C 1.015625 1.625 0.796875 1.53125 0.703125 1.53125 C 0.484375 1.53125 0.203125 1.75 0.203125 2.09375 C 0.203125 2.453125 0.6875 2.546875 0.875 2.546875 C 1.453125 2.546875 2.328125 1.859375 3.015625 0.765625 Z M 3.515625 0 "/>
</g>
<g id="glyph-2-0">
<path d="M 0.484375 -1.375 C 0.515625 -0.890625 0.546875 -0.421875 0.546875 0 C 0.640625 -0.015625 0.75 -0.03125 0.796875 -0.03125 C 0.875 -0.03125 0.921875 -0.03125 1 -0.015625 C 1.265625 0.0625 1.53125 0.09375 1.90625 0.09375 C 2.46875 0.09375 3.484375 -0.171875 3.484375 -1.15625 C 3.484375 -1.828125 3 -2.234375 2.328125 -2.484375 C 1.71875 -2.703125 1.328125 -2.859375 1.328125 -3.40625 C 1.328125 -3.8125 1.6875 -4.046875 2.03125 -4.046875 C 2.25 -4.046875 2.828125 -3.96875 2.953125 -3.125 C 3.015625 -3.0625 3.203125 -3.078125 3.265625 -3.125 C 3.296875 -3.484375 3.3125 -3.859375 3.328125 -4.1875 C 3.015625 -4.234375 2.546875 -4.375 2.03125 -4.375 C 1.28125 -4.375 0.625 -3.890625 0.625 -3.265625 C 0.625 -2.53125 0.953125 -2.21875 1.71875 -1.90625 C 2.546875 -1.5625 2.734375 -1.359375 2.734375 -0.921875 C 2.734375 -0.4375 2.25 -0.234375 1.890625 -0.234375 C 1.5 -0.234375 1.28125 -0.359375 1.171875 -0.46875 C 0.953125 -0.703125 0.84375 -1.140625 0.78125 -1.390625 C 0.734375 -1.453125 0.53125 -1.4375 0.484375 -1.375 Z M 0.484375 -1.375 "/>
</g>
<g id="glyph-2-1">
<path d="M 1.796875 -1.21875 L 1.796875 -3.203125 C 1.796875 -3.703125 1.84375 -4.34375 1.84375 -4.34375 C 1.84375 -4.375 1.796875 -4.40625 1.71875 -4.40625 C 1.421875 -4.296875 1.03125 -4.203125 0.34375 -4.109375 C 0.328125 -4.0625 0.34375 -3.890625 0.375 -3.84375 C 0.90625 -3.78125 1.015625 -3.734375 1.015625 -3.15625 L 1.015625 -1.21875 C 1.015625 -0.390625 0.90625 -0.359375 0.296875 -0.3125 C 0.234375 -0.25 0.234375 -0.046875 0.296875 0.015625 C 0.625 0.015625 1.015625 0 1.421875 0 C 1.8125 0 2.1875 0.015625 2.515625 0.015625 C 2.578125 -0.046875 2.578125 -0.25 2.515625 -0.3125 C 1.90625 -0.34375 1.796875 -0.390625 1.796875 -1.21875 Z M 0.890625 -5.96875 C 0.890625 -5.71875 1.140625 -5.453125 1.375 -5.453125 C 1.65625 -5.453125 1.890625 -5.71875 1.890625 -5.9375 C 1.890625 -6.171875 1.6875 -6.453125 1.421875 -6.453125 C 1.171875 -6.453125 0.890625 -6.203125 0.890625 -5.96875 Z M 0.890625 -5.96875 "/>
</g>
<g id="glyph-2-2">
<path d="M 1.828125 -3.5625 C 1.765625 -3.5 1.71875 -3.46875 1.71875 -3.5625 C 1.703125 -3.84375 1.671875 -4.21875 1.640625 -4.328125 C 1.609375 -4.359375 1.59375 -4.40625 1.515625 -4.40625 C 1.234375 -4.296875 0.984375 -4.203125 0.296875 -4.109375 C 0.265625 -4.0625 0.296875 -3.890625 0.3125 -3.84375 C 0.84375 -3.78125 0.953125 -3.734375 0.953125 -3.15625 L 0.953125 -1.21875 C 0.953125 -0.40625 0.859375 -0.359375 0.265625 -0.3125 C 0.203125 -0.25 0.203125 -0.046875 0.265625 0.015625 C 0.5625 0.015625 0.953125 0 1.359375 0 C 1.75 0 2.046875 0.015625 2.359375 0.015625 C 2.40625 -0.046875 2.40625 -0.25 2.359375 -0.3125 C 1.84375 -0.359375 1.75 -0.40625 1.75 -1.21875 L 1.75 -2.84375 C 1.75 -3.0625 1.828125 -3.1875 1.90625 -3.265625 C 2.296875 -3.640625 2.734375 -3.859375 3.125 -3.859375 C 3.328125 -3.859375 3.53125 -3.734375 3.65625 -3.5 C 3.765625 -3.296875 3.78125 -3.03125 3.78125 -2.734375 L 3.78125 -1.21875 C 3.78125 -0.40625 3.671875 -0.359375 3.15625 -0.3125 C 3.109375 -0.25 3.109375 -0.046875 3.15625 0.015625 C 3.453125 0.015625 3.78125 0 4.171875 0 C 4.578125 0 4.9375 0.015625 5.234375 0.015625 C 5.28125 -0.046875 5.28125 -0.25 5.234375 -0.3125 C 4.671875 -0.359375 4.5625 -0.40625 4.5625 -1.21875 L 4.5625 -2.703125 C 4.5625 -3.25 4.53125 -3.734375 4.296875 -4.03125 C 4.125 -4.25 3.8125 -4.375 3.46875 -4.375 C 2.984375 -4.375 2.421875 -4.25 1.828125 -3.5625 Z M 1.828125 -3.5625 "/>
</g>
<g id="glyph-2-3">
<path d="M 3.96875 -0.90625 C 3.921875 -1 3.84375 -1.03125 3.765625 -1.046875 C 3.421875 -0.609375 2.984375 -0.390625 2.5625 -0.390625 C 1.828125 -0.390625 1.21875 -1.125 1.21875 -2.296875 C 1.21875 -3.390625 1.703125 -4.046875 2.359375 -4.046875 C 2.953125 -4.046875 3.03125 -3.703125 3.078125 -3.34375 C 3.09375 -3.078125 3.234375 -2.984375 3.453125 -2.984375 C 3.65625 -2.984375 3.9375 -3.125 3.9375 -3.421875 C 3.9375 -3.984375 3.375 -4.375 2.40625 -4.375 C 1.421875 -4.375 0.375 -3.484375 0.375 -2.078125 C 0.375 -0.78125 1.09375 0.09375 2.34375 0.09375 C 2.9375 0.09375 3.46875 -0.09375 3.96875 -0.90625 Z M 3.96875 -0.90625 "/>
</g>
<g id="glyph-2-4">
<path d="M 0.40625 -2.046875 C 0.40625 -1.03125 1.09375 0.09375 2.5 0.09375 C 3.140625 0.09375 3.625 -0.125 3.953125 -0.453125 C 4.40625 -0.890625 4.609375 -1.515625 4.609375 -2.140625 C 4.609375 -3.171875 4.046875 -4.375 2.515625 -4.375 C 1.859375 -4.375 1.3125 -4.109375 0.953125 -3.671875 C 0.59375 -3.25 0.40625 -2.671875 0.40625 -2.046875 Z M 2.375 -4.03125 C 3.234375 -4.03125 3.765625 -3.25 3.765625 -1.8125 C 3.765625 -0.5625 3.109375 -0.25 2.640625 -0.25 C 1.609375 -0.25 1.265625 -1.5 1.265625 -2.265625 C 1.265625 -3.140625 1.46875 -4.03125 2.375 -4.03125 Z M 2.375 -4.03125 "/>
</g>
<g id="glyph-3-0">
<path d="M 0.421875 -3.265625 C 0.421875 -3.109375 0.5625 -2.984375 0.703125 -2.984375 C 0.828125 -2.984375 1.03125 -3.109375 1.03125 -3.265625 C 1.03125 -3.328125 1.015625 -3.359375 1 -3.421875 C 0.984375 -3.46875 0.953125 -3.53125 0.953125 -3.578125 C 0.953125 -3.75 1.125 -4 1.640625 -4 C 1.890625 -4 2.25 -3.828125 2.25 -3.15625 C 2.25 -2.71875 2.078125 -2.359375 1.671875 -1.9375 L 1.15625 -1.421875 C 0.46875 -0.734375 0.359375 -0.390625 0.359375 0.015625 C 0.359375 0.015625 0.71875 0 0.9375 0 L 2.15625 0 C 2.390625 0 2.703125 0.015625 2.703125 0.015625 C 2.796875 -0.359375 2.859375 -0.875 2.875 -1.09375 C 2.828125 -1.125 2.734375 -1.140625 2.671875 -1.125 C 2.546875 -0.625 2.4375 -0.453125 2.1875 -0.453125 L 0.9375 -0.453125 C 0.9375 -0.78125 1.421875 -1.265625 1.453125 -1.296875 L 2.15625 -1.96875 C 2.5625 -2.359375 2.859375 -2.65625 2.859375 -3.1875 C 2.859375 -3.9375 2.25 -4.25 1.671875 -4.25 C 0.90625 -4.25 0.421875 -3.671875 0.421875 -3.265625 Z M 0.421875 -3.265625 "/>
</g>
<g id="glyph-3-1">
<path d="M 2.125 -2.1875 C 2.265625 -2.421875 2.265625 -2.71875 1.9375 -2.875 C 1.640625 -3.015625 1.421875 -2.828125 1.34375 -2.609375 L 0.484375 -0.5625 C 0.453125 -0.515625 0.453125 -0.453125 0.453125 -0.40625 C 0.453125 -0.3125 0.546875 -0.21875 0.65625 -0.21875 C 0.71875 -0.21875 0.796875 -0.28125 0.84375 -0.34375 Z M 2.125 -2.1875 "/>
</g>
</g>
<clipPath id="clip-0">
<path clip-rule="nonzero" d="M 0 0 L 433.890625 0 L 433.890625 199.800781 L 0 199.800781 Z M 0 0 "/>
</clipPath>
<clipPath id="clip-1">
<path clip-rule="nonzero" d="M 23.742188 49.957031 L 191.511719 49.957031 L 191.511719 175.203125 L 23.742188 175.203125 Z M 23.742188 49.957031 "/>
</clipPath>
<clipPath id="clip-2">
<path clip-rule="nonzero" d="M 236.863281 49.953125 L 404.628906 49.953125 L 404.628906 175.207031 L 236.863281 175.207031 Z M 236.863281 49.953125 "/>
</clipPath>
</defs>
<g clip-path="url(#clip-0)">
<path fill-rule="nonzero" fill="rgb(95.292664%, 95.684814%, 95.684814%)" fill-opacity="1" d="M 0 191.832031 L 0 7.96875 C 0 3.566406 3.570312 0 7.96875 0 L 425.925781 0 C 430.328125 0 433.898438 3.566406 433.898438 7.96875 L 433.898438 191.832031 C 433.898438 196.234375 430.328125 199.800781 425.925781 199.800781 L 7.96875 199.800781 C 3.570312 199.800781 0 196.234375 0 191.832031 Z M 0 191.832031 "/>
</g>
<path fill="none" stroke-width="0.49814" stroke-linecap="butt" stroke-linejoin="miter" stroke="rgb(64.115906%, 64.312744%, 64.312744%)" stroke-opacity="1" stroke-miterlimit="10" d="M 7.627094 -0.000125 L 7.627094 125.245969 M 33.045063 -0.000125 L 33.045063 125.245969 M 58.463031 -0.000125 L 58.463031 125.245969 M 109.302875 -0.000125 L 109.302875 125.245969 M 134.720844 -0.000125 L 134.720844 125.245969 M 160.142719 -0.000125 L 160.142719 125.245969 " transform="matrix(1, 0, 0, -1, 23.744, 175.203)"/>
<path fill="none" stroke-width="0.49814" stroke-linecap="butt" stroke-linejoin="miter" stroke="rgb(64.115906%, 64.312744%, 64.312744%)" stroke-opacity="1" stroke-miterlimit="10" d="M -0.0018125 17.8905 L 167.767719 17.8905 M -0.0018125 107.351438 L 167.767719 107.351438 " transform="matrix(1, 0, 0, -1, 23.744, 175.203)"/>
<path fill="none" stroke-width="0.19925" stroke-linecap="butt" stroke-linejoin="miter" stroke="rgb(50%, 50%, 50%)" stroke-opacity="1" stroke-miterlimit="10" d="M 7.627094 60.495969 L 7.627094 64.749875 M 33.045063 60.495969 L 33.045063 64.749875 M 58.463031 60.495969 L 58.463031 64.749875 M 109.302875 60.495969 L 109.302875 64.749875 M 134.720844 60.495969 L 134.720844 64.749875 M 160.142719 60.495969 L 160.142719 64.749875 " transform="matrix(1, 0, 0, -1, 23.744, 175.203)"/>
<path fill="none" stroke-width="0.19925" stroke-linecap="butt" stroke-linejoin="miter" stroke="rgb(50%, 50%, 50%)" stroke-opacity="1" stroke-miterlimit="10" d="M 81.756 17.8905 L 86.009906 17.8905 M 81.756 107.351438 L 86.009906 107.351438 " transform="matrix(1, 0, 0, -1, 23.744, 175.203)"/>
<path fill="none" stroke-width="0.79701" stroke-linecap="butt" stroke-linejoin="miter" stroke="rgb(0%, 0%, 0%)" stroke-opacity="1" stroke-miterlimit="10" d="M -0.0018125 62.620969 L 165.177875 62.620969 " transform="matrix(1, 0, 0, -1, 23.744, 175.203)"/>
<path fill-rule="nonzero" fill="rgb(0%, 0%, 0%)" fill-opacity="1" d="M 191.511719 112.582031 L 187.367188 110.507812 L 188.921875 112.582031 L 187.367188 114.652344 "/>
<path fill="none" stroke-width="0.79701" stroke-linecap="butt" stroke-linejoin="miter" stroke="rgb(0%, 0%, 0%)" stroke-opacity="1" stroke-miterlimit="10" d="M 83.884906 -0.000125 L 83.884906 122.656125 " transform="matrix(1, 0, 0, -1, 23.744, 175.203)"/>
<path fill-rule="nonzero" fill="rgb(0%, 0%, 0%)" fill-opacity="1" d="M 107.628906 49.957031 L 105.554688 54.101562 L 107.628906 52.546875 L 109.699219 54.101562 "/>
<g fill="rgb(28.234863%, 28.625488%, 28.625488%)" fill-opacity="1">
<use xlink:href="#glyph-0-0" x="26.313" y="124.619"/>
<use xlink:href="#glyph-0-1" x="31.792452" y="124.619"/>
</g>
<g fill="rgb(28.234863%, 28.625488%, 28.625488%)" fill-opacity="1">
<use xlink:href="#glyph-0-0" x="51.732" y="124.619"/>
<use xlink:href="#glyph-0-2" x="57.211452" y="124.619"/>
</g>
<g fill="rgb(28.234863%, 28.625488%, 28.625488%)" fill-opacity="1">
<use xlink:href="#glyph-0-0" x="77.151" y="124.599"/>
<use xlink:href="#glyph-0-3" x="82.630452" y="124.599"/>
</g>
<g fill="rgb(28.234863%, 28.625488%, 28.625488%)" fill-opacity="1">
<use xlink:href="#glyph-0-3" x="130.729" y="124.599"/>
</g>
<g fill="rgb(28.234863%, 28.625488%, 28.625488%)" fill-opacity="1">
<use xlink:href="#glyph-0-2" x="156.147" y="124.619"/>
</g>
<g fill="rgb(28.234863%, 28.625488%, 28.625488%)" fill-opacity="1">
<use xlink:href="#glyph-0-1" x="181.566" y="124.619"/>
</g>
<g fill="rgb(28.234863%, 28.625488%, 28.625488%)" fill-opacity="1">
<use xlink:href="#glyph-0-0" x="91.553" y="160.329"/>
<use xlink:href="#glyph-0-3" x="97.032452" y="160.329"/>
</g>
<g fill="rgb(28.234863%, 28.625488%, 28.625488%)" fill-opacity="1">
<use xlink:href="#glyph-0-3" x="97.032" y="70.87"/>
</g>
<g clip-path="url(#clip-1)">
<path fill="none" stroke-width="1.59404" stroke-linecap="butt" stroke-linejoin="miter" stroke="rgb(0%, 35.293579%, 58.036804%)" stroke-opacity="1" stroke-miterlimit="10" d="M 2.541156 30.062375 L 2.744281 31.675656 L 2.947406 33.367063 L 3.154438 35.124875 L 3.357563 36.953 L 3.560688 38.843625 L 3.763813 40.788938 L 3.966938 42.785031 L 4.170063 44.824094 L 4.373188 46.906125 L 4.576313 49.019406 L 4.783344 51.163938 L 4.986469 53.328 L 5.189594 55.511594 L 5.392719 57.706906 L 5.595844 59.910031 L 6.002094 64.308469 L 6.205219 66.495969 L 6.41225 68.67175 L 6.615375 70.824094 L 6.8185 72.949094 L 7.021625 75.050656 L 7.22475 77.113156 L 7.427875 79.136594 L 7.631 81.117063 L 7.834125 83.050656 L 8.041156 84.929563 L 8.244281 86.753781 L 8.447406 88.519406 L 8.650531 90.222531 L 8.853656 91.855344 L 9.056781 93.42175 L 9.259906 94.913938 L 9.463031 96.331906 L 9.670063 97.67175 L 9.873188 98.929563 L 10.076313 100.10925 L 10.279438 101.199094 L 10.482563 102.206906 L 10.685688 103.128781 L 10.888813 103.956906 L 11.091938 104.699094 L 11.295063 105.351438 L 11.502094 105.910031 L 11.705219 106.378781 L 11.908344 106.753781 L 12.111469 107.038938 L 12.314594 107.230344 L 12.517719 107.335813 L 12.720844 107.343625 L 12.923969 107.2655 L 13.131 107.101438 L 13.334125 106.843625 L 13.53725 106.503781 L 13.740375 106.074094 L 13.9435 105.566281 L 14.146625 104.972531 L 14.34975 104.300656 L 14.552875 103.550656 L 14.759906 102.726438 L 14.963031 101.824094 L 15.166156 100.855344 L 15.369281 99.816281 L 15.572406 98.710813 L 15.775531 97.538938 L 15.978656 96.312375 L 16.181781 95.023313 L 16.388813 93.679563 L 16.591938 92.285031 L 16.795063 90.843625 L 16.998188 89.351438 L 17.201313 87.820188 L 17.404438 86.245969 L 17.607563 84.636594 L 17.810688 82.995969 L 18.017719 81.324094 L 18.220844 79.620969 L 18.423969 77.898313 L 18.627094 76.156125 L 18.830219 74.394406 L 19.033344 72.617063 L 19.236469 70.831906 L 19.439594 69.035031 L 19.646625 67.238156 L 19.84975 65.433469 L 20.052875 63.632688 L 20.256 61.835813 L 20.459125 60.04675 L 20.66225 58.269406 L 20.865375 56.499875 L 21.0685 54.749875 L 21.275531 53.0155 L 21.478656 51.304563 L 21.681781 49.613156 L 21.884906 47.949094 L 22.088031 46.312375 L 22.291156 44.706906 L 22.494281 43.132688 L 22.697406 41.589719 L 22.904438 40.085813 L 23.107563 38.620969 L 23.310688 37.195188 L 23.513813 35.812375 L 23.716938 34.472531 L 23.920063 33.175656 L 24.123188 31.925656 L 24.326313 30.726438 L 24.533344 29.574094 L 24.736469 28.472531 L 24.939594 27.42175 L 25.142719 26.42175 L 25.345844 25.476438 L 25.548969 24.581906 L 25.752094 23.745969 L 25.955219 22.960813 L 26.158344 22.23425 L 26.365375 21.562375 L 26.5685 20.949094 L 26.771625 20.3905 L 26.97475 19.886594 L 27.177875 19.441281 L 27.381 19.054563 L 27.584125 18.722531 L 27.78725 18.445188 L 27.994281 18.226438 L 28.197406 18.062375 L 28.400531 17.953 L 28.603656 17.898313 L 28.806781 17.898313 L 29.009906 17.953 L 29.213031 18.062375 L 29.416156 18.222531 L 29.623188 18.433469 L 29.826313 18.695188 L 30.029438 19.007688 L 30.232563 19.367063 L 30.435688 19.777219 L 30.638813 20.23425 L 30.841938 20.73425 L 31.045063 21.281125 L 31.252094 21.870969 L 31.455219 22.503781 L 31.658344 23.179563 L 31.861469 23.894406 L 32.064594 24.644406 L 32.267719 25.437375 L 32.470844 26.261594 L 32.673969 27.124875 L 32.881 28.019406 L 33.084125 28.945188 L 33.28725 29.902219 L 33.490375 30.8905 L 33.6935 31.906125 L 33.896625 32.949094 L 34.09975 34.0155 L 34.302875 35.105344 L 34.509906 36.218625 L 34.713031 37.351438 L 34.916156 38.503781 L 35.119281 39.675656 L 35.322406 40.863156 L 35.525531 42.066281 L 35.728656 43.285031 L 35.931781 44.5155 L 36.138813 45.757688 L 36.341938 47.007688 L 36.545063 48.269406 L 36.748188 49.535031 L 36.951313 50.808469 L 37.154438 52.085813 L 37.357563 53.370969 L 37.560688 54.652219 L 37.767719 55.937375 L 38.173969 58.507688 L 38.377094 59.788938 L 38.783344 62.343625 L 38.986469 63.60925 L 39.189594 64.870969 L 39.396625 66.124875 L 39.59975 67.370969 L 39.802875 68.60925 L 40.006 69.835813 L 40.209125 71.050656 L 40.41225 72.253781 L 40.615375 73.445188 L 40.8185 74.620969 L 41.021625 75.781125 L 41.228656 76.929563 L 41.431781 78.058469 L 41.634906 79.175656 L 41.838031 80.273313 L 42.041156 81.351438 L 42.244281 82.413938 L 42.447406 83.456906 L 42.650531 84.480344 L 42.857563 85.48425 L 43.060688 86.468625 L 43.263813 87.433469 L 43.466938 88.374875 L 43.670063 89.29675 L 43.873188 90.195188 L 44.076313 91.074094 L 44.279438 91.925656 L 44.486469 92.757688 L 44.689594 93.570188 L 44.892719 94.355344 L 45.095844 95.117063 L 45.298969 95.855344 L 45.502094 96.574094 L 45.705219 97.2655 L 45.908344 97.933469 L 46.115375 98.581906 L 46.3185 99.203 L 46.521625 99.800656 L 46.72475 100.370969 L 46.927875 100.92175 L 47.131 101.449094 L 47.334125 101.953 L 47.53725 102.429563 L 47.744281 102.886594 L 47.947406 103.316281 L 48.150531 103.726438 L 48.353656 104.113156 L 48.556781 104.476438 L 48.759906 104.816281 L 48.963031 105.132688 L 49.166156 105.429563 L 49.373188 105.699094 L 49.576313 105.953 L 49.779438 106.179563 L 49.982563 106.3905 L 50.185688 106.574094 L 50.388813 106.742063 L 50.591938 106.886594 L 50.795063 107.011594 L 51.002094 107.117063 L 51.205219 107.203 L 51.408344 107.2655 L 51.611469 107.312375 L 51.814594 107.343625 L 52.017719 107.351438 L 52.220844 107.343625 L 52.423969 107.316281 L 52.631 107.273313 L 52.834125 107.214719 L 53.03725 107.136594 L 53.240375 107.042844 L 53.4435 106.933469 L 53.646625 106.808469 L 53.84975 106.667844 L 54.052875 106.5155 L 54.259906 106.343625 L 54.463031 106.163938 L 54.666156 105.964719 L 54.869281 105.753781 L 55.072406 105.531125 L 55.275531 105.29675 L 55.478656 105.050656 L 55.681781 104.788938 L 55.884906 104.519406 L 56.091938 104.238156 L 56.295063 103.945188 L 56.498188 103.6405 L 56.701313 103.328 L 56.904438 103.007688 L 57.107563 102.675656 L 57.310688 102.335813 L 57.513813 101.988156 L 57.720844 101.628781 L 57.923969 101.2655 L 58.127094 100.894406 L 58.533344 100.128781 L 58.736469 99.73425 L 58.939594 99.335813 L 59.142719 98.929563 L 59.34975 98.523313 L 59.756 97.687375 L 59.959125 97.261594 L 60.365375 96.402219 L 60.5685 95.964719 L 60.771625 95.523313 L 60.978656 95.081906 L 61.181781 94.636594 L 61.588031 93.738156 L 61.994281 92.831906 L 62.400531 91.917844 L 62.607563 91.460813 L 62.810688 90.999875 L 63.013813 90.542844 L 63.623188 89.160031 L 63.826313 88.703 L 64.029438 88.242063 L 64.236469 87.785031 L 64.642719 86.870969 L 64.845844 86.417844 L 65.048969 85.960813 L 65.252094 85.511594 L 65.455219 85.058469 L 65.658344 84.613156 L 65.865375 84.163938 L 66.47475 82.839719 L 66.677875 82.402219 L 66.881 81.972531 L 67.084125 81.538938 L 67.28725 81.113156 L 67.494281 80.687375 L 67.697406 80.2655 L 68.306781 79.023313 L 68.509906 78.617063 L 68.713031 78.214719 L 68.916156 77.816281 L 69.123188 77.42175 L 69.326313 77.031125 L 69.529438 76.644406 L 69.732563 76.261594 L 70.138813 75.511594 L 70.341938 75.144406 L 70.545063 74.781125 L 70.748188 74.42175 L 70.955219 74.066281 L 71.158344 73.714719 L 71.361469 73.370969 L 71.564594 73.031125 L 71.767719 72.695188 L 71.970844 72.363156 L 72.173969 72.038938 L 72.377094 71.718625 L 72.584125 71.406125 L 72.78725 71.093625 L 72.990375 70.788938 L 73.396625 70.195188 L 73.59975 69.906125 L 73.802875 69.624875 L 74.006 69.347531 L 74.213031 69.074094 L 74.416156 68.808469 L 74.619281 68.54675 L 74.822406 68.288938 L 75.025531 68.038938 L 75.228656 67.792844 L 75.431781 67.554563 L 75.634906 67.320188 L 75.841938 67.093625 L 76.045063 66.870969 L 76.248188 66.652219 L 76.451313 66.441281 L 76.654438 66.23425 L 76.857563 66.035031 L 77.060688 65.839719 L 77.263813 65.652219 L 77.470844 65.468625 L 77.673969 65.288938 L 77.877094 65.117063 L 78.080219 64.953 L 78.283344 64.792844 L 78.486469 64.636594 L 78.689594 64.488156 L 78.892719 64.343625 L 79.09975 64.206906 L 79.302875 64.074094 L 79.506 63.949094 L 79.709125 63.828 L 79.91225 63.714719 L 80.115375 63.605344 L 80.3185 63.499875 L 80.521625 63.402219 L 80.728656 63.312375 L 80.931781 63.226438 L 81.134906 63.144406 L 81.338031 63.070188 L 81.541156 62.999875 L 81.744281 62.937375 L 82.150531 62.828 L 82.357563 62.785031 L 82.560688 62.742063 L 82.763813 62.706906 L 82.966938 62.679563 L 83.170063 62.656125 L 83.373188 62.6405 L 83.576313 62.628781 L 83.779438 62.620969 L 83.986469 62.620969 L 84.189594 62.628781 L 84.392719 62.6405 L 84.595844 62.656125 L 84.798969 62.679563 L 85.002094 62.706906 L 85.205219 62.742063 L 85.611469 62.828 L 85.8185 62.882688 L 86.021625 62.937375 L 86.22475 62.999875 L 86.427875 63.070188 L 86.631 63.144406 L 86.834125 63.226438 L 87.03725 63.312375 L 87.240375 63.402219 L 87.447406 63.499875 L 87.650531 63.605344 L 87.853656 63.714719 L 88.056781 63.828 L 88.259906 63.949094 L 88.463031 64.074094 L 88.666156 64.206906 L 88.869281 64.343625 L 89.076313 64.488156 L 89.279438 64.636594 L 89.482563 64.792844 L 89.685688 64.953 L 89.888813 65.117063 L 90.091938 65.288938 L 90.295063 65.468625 L 90.498188 65.652219 L 90.705219 65.839719 L 90.908344 66.035031 L 91.111469 66.23425 L 91.314594 66.441281 L 91.517719 66.652219 L 91.720844 66.870969 L 91.923969 67.093625 L 92.127094 67.320188 L 92.334125 67.554563 L 92.53725 67.792844 L 92.740375 68.038938 L 92.9435 68.288938 L 93.146625 68.54675 L 93.34975 68.808469 L 93.552875 69.074094 L 93.756 69.347531 L 93.963031 69.624875 L 94.166156 69.906125 L 94.369281 70.195188 L 94.775531 70.788938 L 94.978656 71.093625 L 95.384906 71.718625 L 95.591938 72.038938 L 95.795063 72.363156 L 95.998188 72.695188 L 96.201313 73.031125 L 96.404438 73.370969 L 96.607563 73.714719 L 96.810688 74.066281 L 97.013813 74.42175 L 97.220844 74.781125 L 97.423969 75.144406 L 97.627094 75.511594 L 98.033344 76.261594 L 98.236469 76.644406 L 98.439594 77.031125 L 98.642719 77.42175 L 98.84975 77.816281 L 99.052875 78.214719 L 99.256 78.617063 L 99.459125 79.023313 L 100.0685 80.2655 L 100.271625 80.687375 L 100.47475 81.113156 L 100.681781 81.538938 L 100.884906 81.972531 L 101.088031 82.402219 L 101.291156 82.839719 L 101.900531 84.163938 L 102.103656 84.613156 L 102.310688 85.058469 L 102.513813 85.511594 L 102.716938 85.960813 L 102.920063 86.417844 L 103.123188 86.870969 L 103.732563 88.242063 L 103.939594 88.703 L 104.142719 89.160031 L 104.752094 90.542844 L 104.955219 90.999875 L 105.158344 91.460813 L 105.361469 91.917844 L 105.5685 92.374875 L 105.771625 92.831906 L 106.177875 93.738156 L 106.584125 94.636594 L 106.78725 95.081906 L 106.990375 95.523313 L 107.197406 95.964719 L 107.400531 96.402219 L 107.806781 97.261594 L 108.009906 97.687375 L 108.416156 98.523313 L 108.619281 98.929563 L 108.826313 99.335813 L 109.029438 99.73425 L 109.232563 100.128781 L 109.638813 100.894406 L 109.841938 101.2655 L 110.045063 101.628781 L 110.248188 101.988156 L 110.455219 102.335813 L 110.658344 102.675656 L 110.861469 103.007688 L 111.064594 103.328 L 111.267719 103.6405 L 111.470844 103.945188 L 111.673969 104.238156 L 111.877094 104.519406 L 112.084125 104.788938 L 112.28725 105.050656 L 112.490375 105.29675 L 112.6935 105.531125 L 112.896625 105.753781 L 113.09975 105.964719 L 113.302875 106.163938 L 113.506 106.343625 L 113.709125 106.5155 L 113.916156 106.667844 L 114.119281 106.808469 L 114.322406 106.933469 L 114.525531 107.042844 L 114.728656 107.136594 L 114.931781 107.214719 L 115.134906 107.273313 L 115.338031 107.316281 L 115.545063 107.343625 L 115.748188 107.351438 L 115.951313 107.343625 L 116.154438 107.312375 L 116.357563 107.2655 L 116.560688 107.203 L 116.763813 107.117063 L 116.966938 107.011594 L 117.173969 106.886594 L 117.377094 106.742063 L 117.580219 106.574094 L 117.783344 106.3905 L 117.986469 106.179563 L 118.189594 105.953 L 118.392719 105.699094 L 118.595844 105.429563 L 118.802875 105.132688 L 119.006 104.816281 L 119.209125 104.476438 L 119.41225 104.113156 L 119.615375 103.726438 L 119.8185 103.316281 L 120.021625 102.886594 L 120.22475 102.429563 L 120.431781 101.953 L 120.634906 101.449094 L 120.838031 100.92175 L 121.041156 100.370969 L 121.244281 99.800656 L 121.447406 99.203 L 121.650531 98.581906 L 121.853656 97.933469 L 122.060688 97.2655 L 122.263813 96.574094 L 122.466938 95.855344 L 122.670063 95.117063 L 122.873188 94.355344 L 123.076313 93.570188 L 123.279438 92.757688 L 123.482563 91.925656 L 123.689594 91.074094 L 123.892719 90.195188 L 124.095844 89.29675 L 124.298969 88.374875 L 124.502094 87.433469 L 124.705219 86.468625 L 124.908344 85.48425 L 125.111469 84.480344 L 125.3185 83.456906 L 125.521625 82.413938 L 125.72475 81.351438 L 125.927875 80.273313 L 126.131 79.175656 L 126.334125 78.058469 L 126.53725 76.929563 L 126.740375 75.781125 L 126.947406 74.620969 L 127.150531 73.445188 L 127.353656 72.253781 L 127.556781 71.050656 L 127.759906 69.835813 L 127.963031 68.60925 L 128.166156 67.370969 L 128.369281 66.124875 L 128.576313 64.870969 L 128.779438 63.60925 L 128.982563 62.343625 L 129.388813 59.788938 L 129.591938 58.507688 L 130.201313 54.652219 L 130.408344 53.370969 L 130.611469 52.085813 L 130.814594 50.808469 L 131.017719 49.535031 L 131.220844 48.269406 L 131.423969 47.007688 L 131.627094 45.757688 L 131.830219 44.5155 L 132.03725 43.285031 L 132.240375 42.066281 L 132.4435 40.863156 L 132.646625 39.675656 L 132.84975 38.503781 L 133.052875 37.351438 L 133.256 36.218625 L 133.459125 35.105344 L 133.666156 34.0155 L 133.869281 32.949094 L 134.072406 31.906125 L 134.275531 30.8905 L 134.478656 29.902219 L 134.681781 28.945188 L 134.884906 28.019406 L 135.088031 27.124875 L 135.295063 26.261594 L 135.498188 25.437375 L 135.701313 24.644406 L 135.904438 23.894406 L 136.107563 23.179563 L 136.310688 22.503781 L 136.513813 21.870969 L 136.716938 21.281125 L 136.923969 20.73425 L 137.127094 20.23425 L 137.330219 19.777219 L 137.533344 19.367063 L 137.736469 19.007688 L 137.939594 18.695188 L 138.142719 18.433469 L 138.345844 18.222531 L 138.552875 18.062375 L 138.756 17.953 L 138.959125 17.898313 L 139.16225 17.898313 L 139.365375 17.953 L 139.5685 18.062375 L 139.771625 18.226438 L 139.97475 18.445188 L 140.181781 18.722531 L 140.384906 19.054563 L 140.588031 19.441281 L 140.791156 19.886594 L 140.994281 20.3905 L 141.197406 20.949094 L 141.400531 21.562375 L 141.603656 22.23425 L 141.810688 22.960813 L 142.013813 23.745969 L 142.216938 24.581906 L 142.420063 25.476438 L 142.623188 26.42175 L 142.826313 27.42175 L 143.029438 28.472531 L 143.232563 29.574094 L 143.435688 30.726438 L 143.642719 31.925656 L 143.845844 33.175656 L 144.048969 34.472531 L 144.252094 35.812375 L 144.455219 37.195188 L 144.658344 38.620969 L 144.861469 40.085813 L 145.064594 41.589719 L 145.271625 43.132688 L 145.47475 44.706906 L 145.677875 46.312375 L 145.881 47.949094 L 146.084125 49.613156 L 146.28725 51.304563 L 146.490375 53.0155 L 146.6935 54.749875 L 146.900531 56.499875 L 147.103656 58.269406 L 147.306781 60.04675 L 147.509906 61.835813 L 147.713031 63.632688 L 147.916156 65.433469 L 148.119281 67.238156 L 148.322406 69.035031 L 148.529438 70.831906 L 148.732563 72.617063 L 148.935688 74.394406 L 149.138813 76.156125 L 149.341938 77.898313 L 149.545063 79.620969 L 149.748188 81.324094 L 149.951313 82.995969 L 150.158344 84.636594 L 150.361469 86.245969 L 150.564594 87.820188 L 150.767719 89.351438 L 150.970844 90.843625 L 151.173969 92.285031 L 151.377094 93.679563 L 151.580219 95.023313 L 151.78725 96.312375 L 151.990375 97.538938 L 152.1935 98.710813 L 152.396625 99.816281 L 152.59975 100.855344 L 152.802875 101.824094 L 153.006 102.726438 L 153.209125 103.550656 L 153.416156 104.300656 L 153.619281 104.972531 L 153.822406 105.566281 L 154.025531 106.074094 L 154.228656 106.503781 L 154.431781 106.843625 L 154.634906 107.101438 L 154.838031 107.2655 L 155.045063 107.343625 L 155.248188 107.335813 L 155.451313 107.230344 L 155.654438 107.038938 L 155.857563 106.753781 L 156.060688 106.378781 L 156.263813 105.910031 L 156.466938 105.351438 L 156.673969 104.699094 L 156.877094 103.956906 L 157.080219 103.128781 L 157.283344 102.206906 L 157.486469 101.199094 L 157.689594 100.10925 L 157.892719 98.929563 L 158.095844 97.67175 L 158.298969 96.331906 L 158.506 94.913938 L 158.709125 93.42175 L 158.91225 91.855344 L 159.115375 90.222531 L 159.3185 88.519406 L 159.521625 86.753781 L 159.72475 84.929563 L 159.927875 83.050656 L 160.134906 81.117063 L 160.338031 79.136594 L 160.541156 77.113156 L 160.744281 75.050656 L 160.947406 72.949094 L 161.150531 70.824094 L 161.353656 68.67175 L 161.556781 66.495969 L 161.763813 64.308469 L 162.170063 59.910031 L 162.373188 57.706906 L 162.576313 55.511594 L 162.779438 53.328 L 162.982563 51.163938 L 163.185688 49.019406 L 163.392719 46.906125 L 163.595844 44.824094 L 163.798969 42.785031 L 164.002094 40.788938 L 164.205219 38.843625 L 164.408344 36.953 L 164.611469 35.124875 L 164.814594 33.367063 L 165.021625 31.675656 L 165.22475 30.062375 " transform="matrix(1, 0, 0, -1, 23.744, 175.203)"/>
</g>
<g fill="rgb(0%, 0%, 0%)" fill-opacity="1">
<use xlink:href="#glyph-1-0" x="188.557" y="126.187"/>
</g>
<g fill="rgb(0%, 0%, 0%)" fill-opacity="1">
<use xlink:href="#glyph-1-1" x="97.9" y="43.572"/>
</g>
<g fill="rgb(0%, 0%, 0%)" fill-opacity="1">
<use xlink:href="#glyph-0-4" x="79.332" y="34.309"/>
<use xlink:href="#glyph-0-5" x="84.283432" y="34.309"/>
<use xlink:href="#glyph-0-6" x="87.830132" y="34.309"/>
</g>
<g fill="rgb(0%, 0%, 0%)" fill-opacity="1">
<use xlink:href="#glyph-0-7" x="93.21992" y="34.309"/>
</g>
<g fill="rgb(0%, 0%, 0%)" fill-opacity="1">
<use xlink:href="#glyph-0-8" x="99.526271" y="34.309"/>
</g>
<g fill="rgb(0%, 0%, 0%)" fill-opacity="1">
<use xlink:href="#glyph-2-0" x="107.781" y="34.309"/>
<use xlink:href="#glyph-2-1" x="111.66643" y="34.309"/>
<use xlink:href="#glyph-2-2" x="114.366305" y="34.309"/>
</g>
<g fill="rgb(0%, 0%, 0%)" fill-opacity="1">
<use xlink:href="#glyph-0-5" x="119.766" y="34.309"/>
<use xlink:href="#glyph-0-6" x="123.3127" y="34.309"/>
</g>
<g fill="rgb(0%, 0%, 0%)" fill-opacity="1">
<use xlink:href="#glyph-3-0" x="128.702" y="30.573"/>
</g>
<g fill="rgb(0%, 0%, 0%)" fill-opacity="1">
<use xlink:href="#glyph-0-7" x="132.373" y="34.309"/>
</g>
<path fill="none" stroke-width="0.49814" stroke-linecap="butt" stroke-linejoin="miter" stroke="rgb(64.115906%, 64.312744%, 64.312744%)" stroke-opacity="1" stroke-miterlimit="10" d="M 7.625281 0.00096875 L 7.625281 125.254875 M 33.04325 0.00096875 L 33.04325 125.254875 M 58.465125 0.00096875 L 58.465125 125.254875 M 109.301062 0.00096875 L 109.301062 125.254875 M 134.722937 0.00096875 L 134.722937 125.254875 M 160.140906 0.00096875 L 160.140906 125.254875 " transform="matrix(1, 0, 0, -1, 236.863, 175.208)"/>
<path fill="none" stroke-width="0.49814" stroke-linecap="butt" stroke-linejoin="miter" stroke="rgb(64.115906%, 64.312744%, 64.312744%)" stroke-opacity="1" stroke-miterlimit="10" d="M 0.00028125 4.817375 L 167.765906 4.817375 M 0.00028125 24.086906 L 167.765906 24.086906 M 0.00028125 43.356438 L 167.765906 43.356438 M 0.00028125 81.899406 L 167.765906 81.899406 M 0.00028125 101.168938 L 167.765906 101.168938 M 0.00028125 120.438469 L 167.765906 120.438469 " transform="matrix(1, 0, 0, -1, 236.863, 175.208)"/>
<path fill="none" stroke-width="0.19925" stroke-linecap="butt" stroke-linejoin="miter" stroke="rgb(50%, 50%, 50%)" stroke-opacity="1" stroke-miterlimit="10" d="M 7.625281 60.500969 L 7.625281 64.754875 M 33.04325 60.500969 L 33.04325 64.754875 M 58.465125 60.500969 L 58.465125 64.754875 M 109.301062 60.500969 L 109.301062 64.754875 M 134.722937 60.500969 L 134.722937 64.754875 M 160.140906 60.500969 L 160.140906 64.754875 " transform="matrix(1, 0, 0, -1, 236.863, 175.208)"/>
<path fill="none" stroke-width="0.19925" stroke-linecap="butt" stroke-linejoin="miter" stroke="rgb(50%, 50%, 50%)" stroke-opacity="1" stroke-miterlimit="10" d="M 81.758094 4.817375 L 86.008094 4.817375 M 81.758094 24.086906 L 86.008094 24.086906 M 81.758094 43.356438 L 86.008094 43.356438 M 81.758094 81.899406 L 86.008094 81.899406 M 81.758094 101.168938 L 86.008094 101.168938 M 81.758094 120.438469 L 86.008094 120.438469 " transform="matrix(1, 0, 0, -1, 236.863, 175.208)"/>
<path fill="none" stroke-width="0.79701" stroke-linecap="butt" stroke-linejoin="miter" stroke="rgb(0%, 0%, 0%)" stroke-opacity="1" stroke-miterlimit="10" d="M 0.00028125 62.625969 L 165.176062 62.625969 " transform="matrix(1, 0, 0, -1, 236.863, 175.208)"/>
<path fill-rule="nonzero" fill="rgb(0%, 0%, 0%)" fill-opacity="1" d="M 404.628906 112.582031 L 400.484375 110.507812 L 402.039062 112.582031 L 400.484375 114.652344 "/>
<path fill="none" stroke-width="0.79701" stroke-linecap="butt" stroke-linejoin="miter" stroke="rgb(0%, 0%, 0%)" stroke-opacity="1" stroke-miterlimit="10" d="M 83.883094 0.00096875 L 83.883094 122.665031 " transform="matrix(1, 0, 0, -1, 236.863, 175.208)"/>
<path fill-rule="nonzero" fill="rgb(0%, 0%, 0%)" fill-opacity="1" d="M 320.746094 49.953125 L 318.675781 54.097656 L 320.746094 52.542969 L 322.820312 54.097656 "/>
<g fill="rgb(28.234863%, 28.625488%, 28.625488%)" fill-opacity="1">
<use xlink:href="#glyph-0-0" x="239.432" y="124.619"/>
<use xlink:href="#glyph-0-1" x="244.911452" y="124.619"/>
</g>
<g fill="rgb(28.234863%, 28.625488%, 28.625488%)" fill-opacity="1">
<use xlink:href="#glyph-0-0" x="264.851" y="124.619"/>
<use xlink:href="#glyph-0-2" x="270.330452" y="124.619"/>
</g>
<g fill="rgb(28.234863%, 28.625488%, 28.625488%)" fill-opacity="1">
<use xlink:href="#glyph-0-0" x="290.27" y="124.599"/>
<use xlink:href="#glyph-0-3" x="295.749452" y="124.599"/>
</g>
<g fill="rgb(28.234863%, 28.625488%, 28.625488%)" fill-opacity="1">
<use xlink:href="#glyph-0-3" x="343.848" y="124.599"/>
</g>
<g fill="rgb(28.234863%, 28.625488%, 28.625488%)" fill-opacity="1">
<use xlink:href="#glyph-0-2" x="369.267" y="124.619"/>
</g>
<g fill="rgb(28.234863%, 28.625488%, 28.625488%)" fill-opacity="1">
<use xlink:href="#glyph-0-1" x="394.686" y="124.619"/>
</g>
<g fill="rgb(28.234863%, 28.625488%, 28.625488%)" fill-opacity="1">
<use xlink:href="#glyph-0-0" x="304.672" y="173.379"/>
<use xlink:href="#glyph-0-9" x="310.151452" y="173.379"/>
</g>
<g fill="rgb(28.234863%, 28.625488%, 28.625488%)" fill-opacity="1">
<use xlink:href="#glyph-0-0" x="304.672" y="154.149"/>
<use xlink:href="#glyph-0-10" x="310.151452" y="154.149"/>
</g>
<g fill="rgb(28.234863%, 28.625488%, 28.625488%)" fill-opacity="1">
<use xlink:href="#glyph-0-0" x="304.672" y="134.879"/>
<use xlink:href="#glyph-0-2" x="310.151452" y="134.879"/>
</g>
<g fill="rgb(28.234863%, 28.625488%, 28.625488%)" fill-opacity="1">
<use xlink:href="#glyph-0-2" x="310.151" y="96.34"/>
</g>
<g fill="rgb(28.234863%, 28.625488%, 28.625488%)" fill-opacity="1">
<use xlink:href="#glyph-0-10" x="310.151" y="77.07"/>
</g>
<g fill="rgb(28.234863%, 28.625488%, 28.625488%)" fill-opacity="1">
<use xlink:href="#glyph-0-9" x="310.151" y="57.761"/>
</g>
<g clip-path="url(#clip-2)">
<path fill="none" stroke-width="1.59404" stroke-linecap="butt" stroke-linejoin="miter" stroke="rgb(90.194702%, 0%, 0%)" stroke-opacity="1" stroke-miterlimit="10" d="M 2.54325 104.911125 L 2.746375 107.040031 L 2.9495 109.040031 L 3.152625 110.899406 L 3.35575 112.622063 L 3.558875 114.204094 L 3.762 115.637688 L 3.969031 116.92675 L 4.172156 118.067375 L 4.375281 119.059563 L 4.578406 119.899406 L 4.781531 120.590813 L 4.984656 121.133781 L 5.187781 121.524406 L 5.390906 121.7705 L 5.597937 121.868156 L 5.801062 121.817375 L 6.004187 121.625969 L 6.207312 121.290031 L 6.410437 120.817375 L 6.613562 120.211906 L 6.816687 119.469719 L 7.019812 118.602531 L 7.222937 117.606438 L 7.429969 116.493156 L 7.633094 115.258781 L 7.836219 113.915031 L 8.039344 112.461906 L 8.242469 110.907219 L 8.445594 109.254875 L 8.648719 107.508781 L 8.851844 105.67675 L 9.058875 103.762688 L 9.262 101.7705 L 9.465125 99.708 L 9.66825 97.583 L 9.871375 95.3955 L 10.0745 93.153313 L 10.277625 90.86425 L 10.48075 88.536125 L 10.687781 86.168938 L 10.890906 83.7705 L 11.094031 81.348625 L 11.297156 78.903313 L 11.500281 76.446281 L 11.703406 73.985344 L 11.906531 71.516594 L 12.109656 69.05175 L 12.316687 66.594719 L 12.519812 64.149406 L 12.722937 61.723625 L 12.926062 59.317375 L 13.129187 56.942375 L 13.332312 54.594719 L 13.535437 52.286125 L 13.738562 50.016594 L 13.945594 47.793938 L 14.148719 45.618156 L 14.351844 43.493156 L 14.554969 41.42675 L 14.758094 39.418938 L 14.961219 37.469719 L 15.164344 35.586906 L 15.367469 33.774406 L 15.5745 32.032219 L 15.777625 30.360344 L 15.98075 28.766594 L 16.183875 27.247063 L 16.387 25.805656 L 16.590125 24.446281 L 16.79325 23.168938 L 16.996375 21.973625 L 17.203406 20.860344 L 17.406531 19.833 L 17.609656 18.891594 L 17.812781 18.036125 L 18.015906 17.266594 L 18.219031 16.583 L 18.422156 15.985344 L 18.625281 15.477531 L 18.832312 15.05175 L 19.035437 14.708 L 19.238562 14.454094 L 19.441687 14.278313 L 19.644812 14.188469 L 19.847937 14.180656 L 20.051062 14.250969 L 20.254187 14.399406 L 20.461219 14.625969 L 20.664344 14.92675 L 20.867469 15.305656 L 21.070594 15.750969 L 21.273719 16.2705 L 21.476844 16.856438 L 21.679969 17.512688 L 21.883094 18.227531 L 22.086219 19.004875 L 22.29325 19.844719 L 22.496375 20.73925 L 22.6995 21.692375 L 22.902625 22.692375 L 23.10575 23.747063 L 23.308875 24.848625 L 23.512 25.993156 L 23.715125 27.180656 L 23.922156 28.407219 L 24.125281 29.672844 L 24.328406 30.973625 L 24.531531 32.305656 L 24.734656 33.668938 L 24.937781 35.055656 L 25.140906 36.469719 L 25.344031 37.907219 L 25.551062 39.360344 L 25.754187 40.833 L 25.957312 42.321281 L 26.160437 43.817375 L 26.363562 45.325188 L 26.566687 46.840813 L 26.769812 48.360344 L 26.972937 49.883781 L 27.179969 51.407219 L 27.383094 52.930656 L 27.586219 54.450188 L 27.789344 55.961906 L 27.992469 57.465813 L 28.195594 58.961906 L 28.398719 60.446281 L 28.601844 61.915031 L 28.808875 63.368156 L 29.012 64.805656 L 29.215125 66.223625 L 29.41825 67.625969 L 29.621375 69.000969 L 29.8245 70.356438 L 30.027625 71.684563 L 30.23075 72.98925 L 30.437781 74.266594 L 30.640906 75.512688 L 30.844031 76.735344 L 31.047156 77.922844 L 31.250281 79.083 L 31.453406 80.208 L 31.656531 81.30175 L 31.859656 82.360344 L 32.066687 83.383781 L 32.269812 84.375969 L 32.472937 85.329094 L 32.676062 86.247063 L 32.879187 87.129875 L 33.082312 87.973625 L 33.285437 88.782219 L 33.488562 89.55175 L 33.695594 90.286125 L 33.898719 90.981438 L 34.101844 91.637688 L 34.304969 92.258781 L 34.508094 92.840813 L 34.711219 93.383781 L 34.914344 93.891594 L 35.117469 94.360344 L 35.3245 94.793938 L 35.527625 95.188469 L 35.73075 95.543938 L 35.933875 95.868156 L 36.137 96.153313 L 36.340125 96.403313 L 36.54325 96.618156 L 36.746375 96.797844 L 36.9495 96.942375 L 37.156531 97.055656 L 37.359656 97.133781 L 37.562781 97.180656 L 37.765906 97.196281 L 37.969031 97.180656 L 38.172156 97.133781 L 38.375281 97.055656 L 38.578406 96.950188 L 38.785437 96.817375 L 38.988562 96.653313 L 39.191687 96.465813 L 39.394812 96.250969 L 39.597937 96.008781 L 39.801062 95.743156 L 40.004187 95.454094 L 40.207312 95.141594 L 40.414344 94.809563 L 40.617469 94.454094 L 40.820594 94.075188 L 41.023719 93.680656 L 41.226844 93.266594 L 41.429969 92.833 L 41.633094 92.379875 L 41.836219 91.915031 L 42.04325 91.430656 L 42.246375 90.934563 L 42.4495 90.422844 L 42.652625 89.8955 L 42.85575 89.360344 L 43.058875 88.809563 L 43.262 88.250969 L 43.465125 87.67675 L 43.672156 87.098625 L 43.875281 86.508781 L 44.078406 85.911125 L 44.281531 85.309563 L 44.687781 84.083 L 45.094031 82.833 L 45.301062 82.204094 L 45.504187 81.571281 L 45.910437 80.297844 L 46.722937 77.735344 L 46.929969 77.098625 L 47.336219 75.825188 L 47.742469 74.559563 L 48.148719 73.309563 L 48.351844 72.692375 L 48.558875 72.075188 L 48.762 71.465813 L 48.965125 70.860344 L 49.16825 70.262688 L 49.371375 69.668938 L 49.5745 69.083 L 49.777625 68.504875 L 49.98075 67.930656 L 50.183875 67.36425 L 50.390906 66.809563 L 50.594031 66.258781 L 50.797156 65.715813 L 51.000281 65.180656 L 51.203406 64.657219 L 51.406531 64.137688 L 51.609656 63.629875 L 51.812781 63.133781 L 52.019812 62.641594 L 52.222937 62.161125 L 52.426062 61.692375 L 52.629187 61.231438 L 52.832312 60.778313 L 53.035437 60.336906 L 53.238562 59.903313 L 53.441687 59.481438 L 53.648719 59.067375 L 53.851844 58.665031 L 54.054969 58.274406 L 54.258094 57.891594 L 54.461219 57.516594 L 54.664344 57.157219 L 54.867469 56.805656 L 55.070594 56.461906 L 55.277625 56.129875 L 55.48075 55.809563 L 55.683875 55.497063 L 55.887 55.196281 L 56.090125 54.903313 L 56.29325 54.622063 L 56.496375 54.348625 L 56.6995 54.086906 L 56.906531 53.836906 L 57.109656 53.590813 L 57.312781 53.360344 L 57.515906 53.133781 L 57.719031 52.922844 L 57.922156 52.715813 L 58.125281 52.5205 L 58.328406 52.333 L 58.535437 52.157219 L 58.738562 51.985344 L 58.941687 51.825188 L 59.144812 51.67675 L 59.347937 51.532219 L 59.551062 51.399406 L 59.754187 51.2705 L 59.957312 51.153313 L 60.164344 51.043938 L 60.367469 50.942375 L 60.570594 50.844719 L 60.773719 50.758781 L 60.976844 50.680656 L 61.179969 50.606438 L 61.383094 50.543938 L 61.586219 50.485344 L 61.79325 50.434563 L 61.996375 50.391594 L 62.1995 50.352531 L 62.402625 50.321281 L 62.60575 50.297844 L 62.808875 50.278313 L 63.012 50.266594 L 63.215125 50.258781 L 63.422156 50.258781 L 63.828406 50.274406 L 64.031531 50.290031 L 64.234656 50.313469 L 64.437781 50.340813 L 64.640906 50.372063 L 64.844031 50.407219 L 65.047156 50.446281 L 65.254187 50.493156 L 65.457312 50.543938 L 65.660437 50.598625 L 65.863562 50.657219 L 66.066687 50.719719 L 66.269812 50.786125 L 66.472937 50.856438 L 66.676062 50.930656 L 66.883094 51.008781 L 67.086219 51.086906 L 67.492469 51.258781 L 67.898719 51.446281 L 68.304969 51.641594 L 68.512 51.743156 L 68.715125 51.848625 L 69.121375 52.067375 L 69.527625 52.293938 L 69.933875 52.528313 L 70.140906 52.649406 L 70.750281 53.024406 L 71.359656 53.411125 L 71.562781 53.543938 L 71.769812 53.680656 L 71.972937 53.813469 L 72.379187 54.086906 L 73.191687 54.649406 L 73.398719 54.793938 L 74.211219 55.372063 L 74.414344 55.5205 L 74.617469 55.665031 L 74.820594 55.813469 L 75.027625 55.961906 L 75.23075 56.110344 L 75.433875 56.262688 L 75.840125 56.559563 L 76.246375 56.86425 L 76.4495 57.012688 L 76.656531 57.165031 L 77.672156 57.92675 L 77.875281 58.083 L 78.078406 58.235344 L 78.285437 58.387688 L 78.488562 58.540031 L 78.691687 58.696281 L 79.097937 59.000969 L 79.301062 59.157219 L 79.504187 59.309563 L 79.707312 59.465813 L 79.910437 59.618156 L 80.117469 59.774406 L 80.523719 60.079094 L 80.726844 60.235344 L 80.929969 60.387688 L 81.133094 60.543938 L 81.336219 60.696281 L 81.539344 60.852531 L 81.746375 61.004875 L 82.152625 61.317375 L 82.35575 61.469719 L 82.558875 61.625969 L 82.762 61.778313 L 82.965125 61.934563 L 83.16825 62.086906 L 83.375281 62.243156 L 83.578406 62.3955 L 83.781531 62.55175 L 83.984656 62.704094 L 84.187781 62.860344 L 84.390906 63.012688 L 84.594031 63.168938 L 84.797156 63.321281 L 85.004187 63.477531 L 85.207312 63.629875 L 85.410437 63.786125 L 85.613562 63.938469 L 85.816687 64.094719 L 86.019812 64.247063 L 86.222937 64.403313 L 86.426062 64.555656 L 86.633094 64.711906 L 86.836219 64.86425 L 87.039344 65.0205 L 87.242469 65.172844 L 87.445594 65.329094 L 87.648719 65.481438 L 87.851844 65.637688 L 88.054969 65.790031 L 88.262 65.946281 L 88.66825 66.250969 L 88.871375 66.407219 L 89.277625 66.711906 L 89.48075 66.868156 L 89.683875 67.0205 L 89.890906 67.172844 L 90.094031 67.325188 L 90.297156 67.481438 L 91.109656 68.090813 L 91.312781 68.23925 L 91.519812 68.391594 L 91.722937 68.543938 L 91.926062 68.692375 L 92.129187 68.844719 L 92.535437 69.141594 L 92.738562 69.293938 L 92.941687 69.442375 L 93.148719 69.586906 L 93.554969 69.883781 L 94.570594 70.606438 L 94.773719 70.747063 L 94.98075 70.887688 L 95.183875 71.028313 L 95.387 71.165031 L 95.590125 71.305656 L 95.79325 71.438469 L 95.996375 71.575188 L 96.402625 71.840813 L 96.609656 71.973625 L 97.015906 72.231438 L 97.422156 72.481438 L 98.031531 72.844719 L 98.238562 72.961906 L 98.644812 73.188469 L 99.051062 73.407219 L 99.254187 73.508781 L 99.457312 73.61425 L 99.660437 73.711906 L 99.867469 73.809563 L 100.070594 73.903313 L 100.476844 74.083 L 100.883094 74.247063 L 101.086219 74.325188 L 101.289344 74.399406 L 101.496375 74.469719 L 101.6995 74.536125 L 101.902625 74.598625 L 102.10575 74.657219 L 102.308875 74.711906 L 102.512 74.762688 L 102.91825 74.848625 L 103.125281 74.883781 L 103.328406 74.915031 L 103.531531 74.942375 L 103.734656 74.961906 L 103.937781 74.977531 L 104.140906 74.98925 L 104.344031 74.993156 L 104.547156 74.993156 L 104.754187 74.98925 L 104.957312 74.977531 L 105.160437 74.958 L 105.363562 74.934563 L 105.566687 74.903313 L 105.769812 74.86425 L 105.972937 74.821281 L 106.176062 74.7705 L 106.383094 74.711906 L 106.586219 74.6455 L 106.789344 74.575188 L 106.992469 74.497063 L 107.195594 74.407219 L 107.398719 74.313469 L 107.601844 74.211906 L 107.804969 74.102531 L 108.012 73.985344 L 108.215125 73.856438 L 108.41825 73.723625 L 108.621375 73.579094 L 108.8245 73.42675 L 109.027625 73.266594 L 109.23075 73.098625 L 109.433875 72.922844 L 109.640906 72.735344 L 109.844031 72.540031 L 110.047156 72.333 L 110.250281 72.118156 L 110.453406 71.8955 L 110.656531 71.661125 L 110.859656 71.418938 L 111.062781 71.168938 L 111.265906 70.903313 L 111.472937 70.633781 L 111.676062 70.352531 L 111.879187 70.059563 L 112.082312 69.758781 L 112.285437 69.446281 L 112.488562 69.125969 L 112.691687 68.793938 L 112.894812 68.450188 L 113.101844 68.098625 L 113.304969 67.735344 L 113.508094 67.36425 L 113.711219 66.981438 L 113.914344 66.590813 L 114.117469 66.188469 L 114.320594 65.774406 L 114.523719 65.352531 L 114.73075 64.918938 L 114.933875 64.477531 L 115.137 64.024406 L 115.340125 63.563469 L 115.54325 63.090813 L 115.746375 62.610344 L 115.9495 62.122063 L 116.152625 61.622063 L 116.359656 61.11425 L 116.562781 60.598625 L 116.765906 60.071281 L 116.969031 59.540031 L 117.172156 58.997063 L 117.375281 58.446281 L 117.578406 57.887688 L 117.781531 57.325188 L 117.988562 56.750969 L 118.191687 56.172844 L 118.597937 54.993156 L 119.004187 53.790031 L 119.207312 53.180656 L 119.410437 52.563469 L 119.617469 51.946281 L 119.820594 51.321281 L 120.226844 50.063469 L 120.429969 49.430656 L 120.836219 48.157219 L 121.039344 47.516594 L 121.246375 46.879875 L 121.85575 44.958 L 122.262 43.684563 L 122.465125 43.05175 L 122.66825 42.422844 L 122.875281 41.793938 L 123.078406 41.172844 L 123.281531 40.555656 L 123.484656 39.946281 L 123.687781 39.340813 L 123.890906 38.747063 L 124.094031 38.157219 L 124.297156 37.575188 L 124.500281 37.004875 L 124.707312 36.446281 L 124.910437 35.8955 L 125.113562 35.356438 L 125.316687 34.833 L 125.519812 34.321281 L 125.722937 33.821281 L 125.926062 33.340813 L 126.129187 32.872063 L 126.336219 32.422844 L 126.539344 31.98925 L 126.742469 31.575188 L 126.945594 31.17675 L 127.148719 30.80175 L 127.351844 30.446281 L 127.554969 30.110344 L 127.758094 29.797844 L 127.965125 29.512688 L 128.16825 29.247063 L 128.371375 29.004875 L 128.5745 28.790031 L 128.777625 28.602531 L 128.98075 28.438469 L 129.183875 28.305656 L 129.387 28.200188 L 129.594031 28.122063 L 129.797156 28.075188 L 130.000281 28.059563 L 130.203406 28.075188 L 130.406531 28.122063 L 130.609656 28.200188 L 130.812781 28.313469 L 131.015906 28.458 L 131.222937 28.637688 L 131.426062 28.852531 L 131.629187 29.102531 L 131.832312 29.387688 L 132.035437 29.711906 L 132.238562 30.067375 L 132.441687 30.461906 L 132.644812 30.8955 L 132.851844 31.36425 L 133.054969 31.868156 L 133.258094 32.415031 L 133.461219 32.997063 L 133.664344 33.61425 L 133.867469 34.274406 L 134.070594 34.969719 L 134.273719 35.700188 L 134.48075 36.473625 L 134.683875 37.282219 L 134.887 38.125969 L 135.090125 39.008781 L 135.29325 39.92675 L 135.496375 40.879875 L 135.6995 41.872063 L 135.902625 42.8955 L 136.109656 43.954094 L 136.312781 45.047844 L 136.515906 46.172844 L 136.719031 47.333 L 136.922156 48.5205 L 137.125281 49.73925 L 137.328406 50.98925 L 137.531531 52.266594 L 137.738562 53.571281 L 137.941687 54.899406 L 138.144812 56.254875 L 138.347937 57.629875 L 138.551062 59.028313 L 138.754187 60.450188 L 138.957312 61.887688 L 139.160437 63.340813 L 139.363562 64.809563 L 139.570594 66.293938 L 139.773719 67.790031 L 139.976844 69.293938 L 140.179969 70.805656 L 140.586219 73.844719 L 140.992469 76.891594 L 141.1995 78.415031 L 141.402625 79.930656 L 141.60575 81.438469 L 141.808875 82.934563 L 142.012 84.422844 L 142.215125 85.8955 L 142.41825 87.348625 L 142.621375 88.782219 L 142.828406 90.196281 L 143.031531 91.586906 L 143.234656 92.946281 L 143.437781 94.282219 L 143.640906 95.579094 L 143.844031 96.844719 L 144.047156 98.075188 L 144.250281 99.262688 L 144.457312 100.407219 L 144.660437 101.508781 L 144.863562 102.559563 L 145.066687 103.563469 L 145.269812 104.512688 L 145.472937 105.411125 L 145.676062 106.247063 L 145.879187 107.028313 L 146.086219 107.743156 L 146.289344 108.3955 L 146.492469 108.985344 L 146.695594 109.500969 L 146.898719 109.950188 L 147.101844 110.325188 L 147.304969 110.629875 L 147.508094 110.856438 L 147.715125 111.004875 L 147.91825 111.075188 L 148.121375 111.067375 L 148.3245 110.973625 L 148.527625 110.80175 L 148.73075 110.543938 L 148.933875 110.204094 L 149.137 109.778313 L 149.344031 109.266594 L 149.547156 108.668938 L 149.750281 107.985344 L 149.953406 107.215813 L 150.156531 106.360344 L 150.359656 105.418938 L 150.562781 104.3955 L 150.765906 103.282219 L 150.972937 102.086906 L 151.176062 100.809563 L 151.379187 99.450188 L 151.582312 98.008781 L 151.785437 96.48925 L 151.988562 94.8955 L 152.191687 93.223625 L 152.394812 91.481438 L 152.601844 89.665031 L 152.804969 87.786125 L 153.008094 85.836906 L 153.211219 83.829094 L 153.414344 81.758781 L 153.617469 79.637688 L 153.820594 77.461906 L 154.023719 75.235344 L 154.226844 72.969719 L 154.433875 70.661125 L 154.637 68.313469 L 154.840125 65.938469 L 155.04325 63.532219 L 155.246375 61.106438 L 155.4495 58.661125 L 155.652625 56.204094 L 155.85575 53.73925 L 156.062781 51.2705 L 156.265906 48.805656 L 156.469031 46.348625 L 156.672156 43.907219 L 156.875281 41.485344 L 157.078406 39.086906 L 157.281531 36.719719 L 157.484656 34.387688 L 157.691687 32.102531 L 157.894812 29.860344 L 158.097937 27.672844 L 158.301062 25.547844 L 158.504187 23.485344 L 158.707312 21.493156 L 158.910437 19.579094 L 159.113562 17.747063 L 159.320594 16.000969 L 159.523719 14.348625 L 159.726844 12.793938 L 159.929969 11.340813 L 160.133094 9.997063 L 160.336219 8.762688 L 160.539344 7.649406 L 160.742469 6.653313 L 160.9495 5.782219 L 161.152625 5.043938 L 161.35575 4.434563 L 161.558875 3.961906 L 161.762 3.629875 L 161.965125 3.438469 L 162.16825 3.387688 L 162.371375 3.485344 L 162.578406 3.727531 L 162.781531 4.122063 L 162.984656 4.661125 L 163.187781 5.352531 L 163.390906 6.196281 L 163.594031 7.188469 L 163.797156 8.329094 L 164.000281 9.618156 L 164.207312 11.05175 L 164.410437 12.633781 L 164.613562 14.356438 L 164.816687 16.215813 L 165.019812 18.215813 L 165.222937 20.344719 " transform="matrix(1, 0, 0, -1, 236.863, 175.208)"/>
</g>
<g fill="rgb(0%, 0%, 0%)" fill-opacity="1">
<use xlink:href="#glyph-1-0" x="401.677" y="126.187"/>
</g>
<g fill="rgb(0%, 0%, 0%)" fill-opacity="1">
<use xlink:href="#glyph-1-1" x="311.019" y="43.566"/>
</g>
<g fill="rgb(0%, 0%, 0%)" fill-opacity="1">
<use xlink:href="#glyph-0-4" x="281.842" y="34.303"/>
</g>
<g fill="rgb(0%, 0%, 0%)" fill-opacity="1">
<use xlink:href="#glyph-3-1" x="286.793" y="30.567"/>
</g>
<g fill="rgb(0%, 0%, 0%)" fill-opacity="1">
<use xlink:href="#glyph-0-5" x="289.886" y="34.303"/>
<use xlink:href="#glyph-0-6" x="293.4327" y="34.303"/>
</g>
<g fill="rgb(0%, 0%, 0%)" fill-opacity="1">
<use xlink:href="#glyph-0-7" x="298.822488" y="34.303"/>
</g>
<g fill="rgb(0%, 0%, 0%)" fill-opacity="1">
<use xlink:href="#glyph-0-8" x="305.128839" y="34.303"/>
</g>
<g fill="rgb(0%, 0%, 0%)" fill-opacity="1">
<use xlink:href="#glyph-2-3" x="313.383" y="34.303"/>
<use xlink:href="#glyph-2-4" x="317.64701" y="34.303"/>
<use xlink:href="#glyph-2-0" x="322.66818" y="34.303"/>
</g>
<g fill="rgb(0%, 0%, 0%)" fill-opacity="1">
<use xlink:href="#glyph-0-5" x="326.553" y="34.303"/>
<use xlink:href="#glyph-0-6" x="330.0997" y="34.303"/>
</g>
<g fill="rgb(0%, 0%, 0%)" fill-opacity="1">
<use xlink:href="#glyph-3-0" x="335.49" y="30.567"/>
</g>
<g fill="rgb(0%, 0%, 0%)" fill-opacity="1">
<use xlink:href="#glyph-0-7" x="339.161" y="34.303"/>
</g>
<g fill="rgb(0%, 0%, 0%)" fill-opacity="1">
<use xlink:href="#glyph-0-11" x="344.919406" y="34.303"/>
</g>
<g fill="rgb(0%, 0%, 0%)" fill-opacity="1">
<use xlink:href="#glyph-0-2" x="349.621772" y="34.303"/>
<use xlink:href="#glyph-0-6" x="354.2544" y="34.303"/>
</g>
</svg>
